<svg width="16" height="16" viewBox="0 0 16 16" fill="none" xmlns="http://www.w3.org/2000/svg">
<path d="M13.3332 8V14.6667H2.6665V8" stroke="white" stroke-linecap="round" stroke-linejoin="round"/>
<path d="M14.6668 4.66675H1.3335V8.00008H14.6668V4.66675Z" stroke="white" stroke-linecap="round" stroke-linejoin="round"/>
<path d="M8 14.6668V4.66675" stroke="white" stroke-linecap="round" stroke-linejoin="round"/>
<path d="M8.00016 4.66659H5.00016C4.55814 4.66659 4.13421 4.49099 3.82165 4.17843C3.50909 3.86587 3.3335 3.44195 3.3335 2.99992C3.3335 2.55789 3.50909 2.13397 3.82165 1.82141C4.13421 1.50885 4.55814 1.33325 5.00016 1.33325C7.3335 1.33325 8.00016 4.66659 8.00016 4.66659Z" stroke="white" stroke-linecap="round" stroke-linejoin="round"/>
<path d="M8 4.66659H11C11.442 4.66659 11.866 4.49099 12.1785 4.17843C12.4911 3.86587 12.6667 3.44195 12.6667 2.99992C12.6667 2.55789 12.4911 2.13397 12.1785 1.82141C11.866 1.50885 11.442 1.33325 11 1.33325C8.66667 1.33325 8 4.66659 8 4.66659Z" stroke="white" stroke-linecap="round" stroke-linejoin="round"/>
</svg>
