<svg width="24" height="25" viewBox="0 0 24 25" fill="none" xmlns="http://www.w3.org/2000/svg">
<path d="M20 12.2998V22.5498H4V12.2998" stroke="white" stroke-linecap="round" stroke-linejoin="round"/>
<path d="M22 7.1748H2V12.2998H22V7.1748Z" stroke="white" stroke-linecap="round" stroke-linejoin="round"/>
<path d="M12 22.5498V7.1748" stroke="white" stroke-linecap="round" stroke-linejoin="round"/>
<path d="M12 7.1748H7.5C6.83696 7.1748 6.20107 6.90483 5.73223 6.42427C5.26339 5.9437 5 5.29192 5 4.6123C5 3.93269 5.26339 3.28091 5.73223 2.80034C6.20107 2.31978 6.83696 2.0498 7.5 2.0498C11 2.0498 12 7.1748 12 7.1748Z" stroke="white" stroke-linecap="round" stroke-linejoin="round"/>
<path d="M12 7.1748H16.5C17.163 7.1748 17.7989 6.90483 18.2678 6.42427C18.7366 5.9437 19 5.29192 19 4.6123C19 3.93269 18.7366 3.28091 18.2678 2.80034C17.7989 2.31978 17.163 2.0498 16.5 2.0498C13 2.0498 12 7.1748 12 7.1748Z" stroke="white" stroke-linecap="round" stroke-linejoin="round"/>
</svg>
