<svg width="448" height="274" viewBox="0 0 448 274" fill="none" xmlns="http://www.w3.org/2000/svg">
<path d="M353.523 3.8356C345.502 -1.04424 335.024 1.48985 330.119 9.49565L303.136 53.5384L276.054 10.2559C271.074 2.29673 260.572 -0.138687 252.597 4.81629C244.622 9.77127 242.194 20.2403 247.174 28.1995L283.293 85.9254L245.488 147.632C240.583 155.638 243.109 166.083 251.13 170.963C259.151 175.843 269.63 173.309 274.535 165.303L303.44 118.124L333.103 165.532C338.083 173.491 348.585 175.927 356.56 170.972C364.535 166.017 366.963 155.548 361.983 147.588L323.282 85.7369L359.166 27.1671C364.071 19.1613 361.544 8.71544 353.523 3.8356Z" fill="#16478C"/>
<path d="M89 17.5C89 7.83501 96.835 0 106.5 0C116.165 0 124 7.83502 124 17.5V113H124.148C125.653 128.16 138.444 140 154 140C169.556 140 182.347 128.16 183.852 113H184V17.5C184 7.83501 191.835 0 201.5 0C211.165 0 219 7.83502 219 17.5V113H218.932C217.364 147.506 188.893 175 154 175C119.107 175 90.6354 147.506 89.0679 113H89V17.5Z" fill="#16478C"/>
<path d="M8 202C3.58172 202 0 205.582 0 210V265C0 269.418 3.58172 273 8 273C12.4183 273 16 269.418 16 265V237.13L25.4669 254.884C26.7846 257.355 29.3743 258.717 32 258.592C34.6257 258.717 37.2154 257.355 38.5331 254.884L48 237.13V265C48 269.418 51.5817 273 56 273C60.4183 273 64 269.418 64 265V210C64 205.582 60.4183 202 56 202C52.6797 202 49.8318 204.023 48.6214 206.903C48.1201 207.393 47.6846 207.968 47.3373 208.619L32 237.382L16.6627 208.619C16.3154 207.968 15.8799 207.393 15.3786 206.903C14.1682 204.023 11.3203 202 8 202Z" fill="#16478C"/>
<path fill-rule="evenodd" clip-rule="evenodd" d="M294.93 205C294.444 201.608 291.527 199 288.001 199C284.474 199 281.557 201.608 281.071 205C264.884 205 251 217.356 251 234L251 238C251 253.703 264.342 266.491 281 266.985C281 270.806 284.174 274 288.001 274C291.827 274 295.001 270.806 295.001 266.985C311.658 266.491 325 253.703 325 238V234C325 217.356 311.117 205 294.93 205ZM281.001 219.008V251.992C272.849 251.751 266.285 245.621 266.009 238H266L266.008 234C265.73 225.794 272.802 218.73 281.001 219.008ZM295.001 219.008V251.993C303.152 251.751 309.715 245.621 309.991 238L309.992 234C310.27 225.802 303.207 218.73 295.001 219.008Z" fill="#16478C"/>
<path fill-rule="evenodd" clip-rule="evenodd" d="M334 227V249C334 262.807 345.193 274 359 274C372.807 274 384 262.807 384 249V227C384 213.193 372.807 202 359 202C345.193 202 334 213.193 334 227ZM370 227C370 220.925 365.075 216 359 216C352.925 216 348 220.925 348 227L348 249C348 255.075 352.925 260 359 260C365.075 260 370 255.075 370 249L370 227Z" fill="#16478C"/>
<path d="M412 209C412 205.134 408.866 202 405 202C401.134 202 398 205.134 398 209V266C398 269.866 401.134 273 405 273C408.866 273 412 269.866 412 266V244H434V266C434 269.866 437.134 273 441 273C444.866 273 448 269.866 448 266V209C448 205.134 444.866 202 441 202C437.134 202 434 205.134 434 209V231H412V209Z" fill="#16478C"/>
<path fill-rule="evenodd" clip-rule="evenodd" d="M139 210C139 205.582 142.582 202 147 202H168C180.15 202 190 211.85 190 224C190 236.15 180.15 246 168 246H155V265C155 269.418 151.418 273 147 273C142.582 273 139 269.418 139 265V210ZM155 233H168V232.945C172.5 232.448 176 228.633 176 224C176 219.367 172.5 215.552 168 215.055V215H155V233Z" fill="#16478C"/>
<path fill-rule="evenodd" clip-rule="evenodd" d="M104.946 202.329C107.284 203.227 108.151 205.31 109.075 207.655C110 210 130.685 263.95 130.685 263.95C131.971 267.301 130.298 271.061 126.946 272.348C123.595 273.634 119.835 271.96 118.548 268.609L114.86 259H90.1546L86.466 268.609C85.1795 271.96 81.4198 273.634 78.0684 272.348C74.7169 271.061 73.043 267.301 74.3295 263.95C74.3295 263.95 95 210 95.9391 207.655C96.8783 205.31 97.7303 203.227 100.069 202.329C100.871 202.021 101.698 201.883 102.508 201.896C103.318 201.883 104.143 202.021 104.946 202.329ZM94.761 247H110.254L102.507 226.82L94.761 247Z" fill="#16478C"/>
<path fill-rule="evenodd" clip-rule="evenodd" d="M222.05 203.434C224.388 204.331 225.255 206.414 226.179 208.759C227.104 211.104 247.789 265.054 247.789 265.054C249.076 268.406 247.402 272.166 244.05 273.452C240.699 274.739 236.939 273.065 235.652 269.713L231.964 260.104H207.259L203.57 269.713C202.284 273.065 198.524 274.739 195.172 273.452C191.821 272.166 190.147 268.406 191.433 265.054C191.433 265.054 212.104 211.104 213.043 208.759C213.982 206.414 214.834 204.331 217.173 203.433C217.975 203.125 218.802 202.987 219.612 203.001C220.422 202.987 221.247 203.125 222.05 203.434ZM211.865 248.104H227.358L219.611 227.924L211.865 248.104Z" fill="#16478C"/>
</svg>
