<svg width="117" height="117" viewBox="0 0 117 117" fill="none" xmlns="http://www.w3.org/2000/svg">
<path fill-rule="evenodd" clip-rule="evenodd" d="M99.9617 38.7435C100.03 38.8907 100.058 39.0539 100.041 39.2154C99.9444 40.18 98.5199 40.3793 98.108 39.5017C91.7476 25.9503 78.6286 15.9868 62.6507 14.382C38.4718 11.9534 16.9022 29.5855 14.4736 53.7643C12.045 77.9432 29.6771 99.5128 53.856 101.941C77.0683 104.273 97.8758 88.1155 101.651 65.4264L88.2742 74.497C87.8171 74.807 87.1953 74.6877 86.8854 74.2306C86.5754 73.7735 86.6947 73.1516 87.1518 72.8417L102.997 62.0975L103.92 61.4711L104.442 62.4578L113.7 79.9733C113.958 80.4616 113.771 81.0666 113.283 81.3247C112.795 81.5828 112.19 81.3962 111.932 80.9079L103.694 65.3223C99.9418 89.2705 78.0714 106.384 53.6561 103.931C28.3782 101.392 9.94464 78.8424 12.4836 53.5645C15.0226 28.2866 37.5726 9.85302 62.8506 12.392C79.5901 14.0734 93.3281 24.5303 99.9617 38.7435Z" fill="white"/>
<path d="M100.041 39.2154L101.036 39.3154L101.036 39.3153L100.041 39.2154ZM99.9617 38.7435L100.868 38.3206L100.868 38.3206L99.9617 38.7435ZM98.108 39.5017L97.2028 39.9266L98.108 39.5017ZM62.6507 14.382L62.5507 15.377L62.6507 14.382ZM14.4736 53.7643L15.4686 53.8643L14.4736 53.7643ZM53.856 101.941L53.756 102.936L53.856 101.941ZM101.651 65.4264L102.638 65.5905L103.02 63.2897L101.09 64.5987L101.651 65.4264ZM88.2742 74.497L88.8355 75.3247L88.2742 74.497ZM87.1518 72.8417L87.713 73.6693L87.1518 72.8417ZM102.997 62.0975L102.435 61.2698L102.997 62.0975ZM103.92 61.4711L104.805 61.0038L104.283 60.017L103.359 60.6434L103.92 61.4711ZM104.442 62.4578L105.326 61.9905L105.326 61.9905L104.442 62.4578ZM113.7 79.9733L112.816 80.4406L112.816 80.4406L113.7 79.9733ZM113.283 81.3247L113.75 82.2088L113.283 81.3247ZM111.932 80.9079L111.048 81.3752L111.048 81.3752L111.932 80.9079ZM103.694 65.3223L104.578 64.855L103.172 62.1944L102.706 65.1675L103.694 65.3223ZM53.6561 103.931L53.756 102.936L53.6561 103.931ZM12.4836 53.5645L13.4786 53.6644L12.4836 53.5645ZM62.8506 12.392L62.9505 11.397L62.8506 12.392ZM101.036 39.3153C101.07 38.9773 101.014 38.6332 100.868 38.3206L99.0556 39.1664C99.047 39.1482 99.0448 39.1305 99.0463 39.1155L101.036 39.3153ZM97.2028 39.9266C97.6359 40.8493 98.5817 41.1481 99.3359 41.0391C100.095 40.9293 100.931 40.3609 101.036 39.3154L99.0463 39.1155C99.0463 39.1158 99.0466 39.1125 99.0483 39.1066C99.0501 39.1007 99.0528 39.0936 99.0566 39.086C99.0647 39.0701 99.0744 39.059 99.081 39.0529C99.0871 39.0474 99.0884 39.0479 99.0821 39.0508C99.0756 39.0538 99.0645 39.0575 99.0497 39.0597C99.0349 39.0618 99.0207 39.0617 99.009 39.0601C98.9974 39.0585 98.9918 39.0561 98.9916 39.0559C98.9916 39.0559 98.9929 39.0566 98.9953 39.0582C98.9977 39.0598 99.0006 39.0621 99.0037 39.0652C99.011 39.0723 99.0138 39.0779 99.0133 39.0768L97.2028 39.9266ZM62.5507 15.377C78.1643 16.9452 90.9856 26.6804 97.2028 39.9266L99.0133 39.0768C92.5095 25.2202 79.0928 15.0284 62.7506 13.387L62.5507 15.377ZM15.4686 53.8643C17.842 30.2349 38.9214 13.0036 62.5507 15.377L62.7506 13.387C38.0222 10.9032 15.9624 28.936 13.4786 53.6644L15.4686 53.8643ZM53.9559 100.946C30.3266 98.573 13.0952 77.4936 15.4686 53.8643L13.4786 53.6644C10.9948 78.3928 29.0276 100.453 53.756 102.936L53.9559 100.946ZM100.665 65.2622C96.9754 87.4348 76.6403 103.225 53.9559 100.946L53.756 102.936C77.4963 105.321 98.7763 88.7962 102.638 65.5905L100.665 65.2622ZM101.09 64.5987L87.713 73.6693L88.8355 75.3247L102.212 66.254L101.09 64.5987ZM87.713 73.6693L86.0577 74.7918C86.6776 75.706 87.9213 75.9446 88.8355 75.3247L87.713 73.6693ZM87.713 73.6693L86.5906 72.014C85.6764 72.6339 85.4378 73.8776 86.0577 74.7918L87.713 73.6693ZM87.713 73.6693L103.558 62.9251L102.435 61.2698L86.5906 72.014L87.713 73.6693ZM103.558 62.9251L104.482 62.2987L103.359 60.6434L102.435 61.2698L103.558 62.9251ZM103.036 61.9384L103.558 62.9251L105.326 61.9905L104.805 61.0038L103.036 61.9384ZM103.558 62.9251L112.816 80.4406L114.584 79.506L105.326 61.9905L103.558 62.9251ZM112.816 80.4406L112.816 80.4406L113.75 82.2088C114.727 81.6927 115.1 80.4826 114.584 79.506L112.816 80.4406ZM112.816 80.4406L112.816 80.4406L111.048 81.3752C111.564 82.3517 112.774 82.725 113.75 82.2088L112.816 80.4406ZM112.816 80.4406L104.578 64.855L102.81 65.7896L111.048 81.3752L112.816 80.4406ZM53.5562 104.926C78.5025 107.432 100.848 89.9468 104.682 65.4771L102.706 65.1675C99.0356 88.5942 77.6402 105.335 53.756 102.936L53.5562 104.926ZM11.4886 53.4645C8.89446 79.292 27.7287 102.332 53.5562 104.926L53.756 102.936C29.0276 100.453 10.9948 78.3928 13.4786 53.6644L11.4886 53.4645ZM62.9505 11.397C37.1231 8.80283 14.0828 27.6371 11.4886 53.4645L13.4786 53.6644C15.9624 28.936 38.0222 10.9032 62.7506 13.387L62.9505 11.397ZM100.868 38.3206C94.0913 23.8011 80.0551 13.115 62.9505 11.397L62.7506 13.387C79.125 15.0317 92.5648 25.2594 99.0556 39.1665L100.868 38.3206Z" fill="white"/>
<path d="M51.333 41.012H56.5548V56.065H60.8604V34.2168H57.3182C57.2266 35.8623 56.1272 37.9953 51.9742 37.9953H51.333V41.012Z" fill="white"/>
<path d="M43.2617 67.3299V78.0724H45.0709V68.8277H50.2697V67.3299H43.2617Z" fill="white"/>
<path d="M51.2041 72.6863C51.1908 74.1345 51.5984 75.4273 52.4267 76.5647C53.2352 77.7352 54.4877 78.3402 56.1842 78.3799C57.9138 78.3402 59.1762 77.7352 59.9715 76.5647C60.7733 75.4273 61.1742 74.1345 61.1742 72.6863C61.1742 71.2381 60.7733 69.9453 59.9715 68.8079C59.1762 67.644 57.9138 67.0489 56.1842 67.0224C54.4877 67.0489 53.2352 67.644 52.4267 68.8079C51.5984 69.9453 51.1908 71.2381 51.2041 72.6863ZM53.053 72.6863C53.053 72.3094 53.0994 71.8828 53.1921 71.4067C53.2915 70.9504 53.4506 70.5041 53.6693 70.0676C53.8946 69.6378 54.2193 69.2873 54.6434 69.0162C55.0477 68.7451 55.5613 68.6029 56.1842 68.5897C56.8402 68.6029 57.377 68.7451 57.7945 69.0162C58.2186 69.2873 58.5367 69.6378 58.7488 70.0676C58.9675 70.5041 59.1265 70.9504 59.2259 71.4067C59.2922 71.8828 59.3253 72.3094 59.3253 72.6863C59.3253 73.0434 59.2922 73.4501 59.2259 73.9064C59.1265 74.3825 58.9675 74.8421 58.7488 75.2851C58.5367 75.7216 58.2186 76.0754 57.7945 76.3465C57.377 76.6573 56.8402 76.8127 56.1842 76.8127C55.5613 76.8127 55.0477 76.6573 54.6434 76.3465C54.2193 76.0754 53.8946 75.7216 53.6693 75.2851C53.4506 74.8421 53.2915 74.3825 53.1921 73.9064C53.0994 73.4501 53.053 73.0434 53.053 72.6863Z" fill="white"/>
<path d="M64.5241 67.3299V70.8215C64.5639 72.8119 64.163 74.7263 63.3214 76.5647H62.1186V81.2168H63.7687V78.0724H71.6116V81.2168H73.2617V76.5647H72.0589V67.3299H64.5241ZM70.2498 76.5647H65.2001C65.9423 74.9049 66.3002 72.9773 66.2736 70.7818V68.8277H70.2498V76.5647Z" fill="white"/>
</svg>
