<svg width="677" height="21" viewBox="0 0 677 21" fill="none" xmlns="http://www.w3.org/2000/svg">
<path opacity="0.5" fill-rule="evenodd" clip-rule="evenodd" d="M657.046 11.5C657.525 16.8299 661.793 21 666.987 21C672.502 21 676.973 16.299 676.973 10.5C676.973 4.70101 672.502 0 666.987 0C662.122 0 658.07 3.65756 657.182 8.5L342.792 8.5C341.904 3.65755 337.851 -1.54726e-05 332.987 -1.54726e-05C328.122 -1.54726e-05 324.07 3.65755 323.182 8.5L19.7917 8.5C18.9036 3.65755 14.8514 -2.95914e-05 9.98682 -2.95914e-05C4.4718 -2.95914e-05 0.000976562 4.70098 0.000976562 10.5C0.000976562 16.299 4.4718 21 9.98682 21C15.1811 21 19.4491 16.8299 19.928 11.5L323.046 11.5C323.525 16.8299 327.793 21 332.987 21C338.181 21 342.449 16.8299 342.928 11.5L657.046 11.5Z" fill="url(#paint0_linear)"/>
<defs>
<linearGradient id="paint0_linear" x1="676.973" y1="10.5" x2="0.000976562" y2="10.5" gradientUnits="userSpaceOnUse">
<stop stop-color="#330867"/>
<stop offset="1" stop-color="#11BCBD"/>
</linearGradient>
</defs>
</svg>
