<svg width="840" height="400" viewBox="0 0 840 400" fill="none" xmlns="http://www.w3.org/2000/svg">
<path d="M689.031 86.0264V96.1455C689.003 97.8356 688.562 98.9958 687.71 99.626C687.524 99.7692 687.32 99.9017 687.098 100.023C686.861 100.152 686.618 100.245 686.367 100.303C685.887 100.453 685.39 100.528 684.874 100.528C684.394 100.528 683.918 100.453 683.445 100.303C682.958 100.16 682.518 99.9268 682.124 99.6045C681.73 99.2536 681.415 98.7989 681.179 98.2403C680.914 97.6673 680.781 96.9548 680.781 96.1026V86.0264H678.633V96.6934C678.611 98.2188 679.102 99.5401 680.104 100.657C681.086 101.803 682.64 102.39 684.767 102.419C686.965 102.39 688.584 101.789 689.622 100.614C690.668 99.4685 691.19 98.0612 691.19 96.3926V86.0264H689.031ZM701.61 93.8145L706.96 86.0264H704.382L700.332 92.1494L696.293 86.0264H693.586L698.925 93.8145L693.231 102H695.831L700.246 95.4473L704.543 102H707.196L701.61 93.8145ZM714.168 85.6075H712.696L707.218 102.419H708.711L714.168 85.6075ZM725.812 86.0264V96.1455C725.784 97.8356 725.343 98.9958 724.491 99.626C724.305 99.7692 724.101 99.9017 723.879 100.023C723.643 100.152 723.399 100.245 723.148 100.303C722.669 100.453 722.171 100.528 721.655 100.528C721.175 100.528 720.699 100.453 720.227 100.303C719.74 100.16 719.299 99.9268 718.905 99.6045C718.511 99.2536 718.196 98.7989 717.96 98.2403C717.695 97.6673 717.562 96.9548 717.562 96.1026V86.0264H715.414V96.6934C715.393 98.2188 715.883 99.5401 716.886 100.657C717.867 101.803 719.421 102.39 721.548 102.419C723.746 102.39 725.365 101.789 726.403 100.614C727.449 99.4685 727.972 98.0612 727.972 96.3926V86.0264H725.812ZM733.375 86.0264H731.227V102H733.375V86.0264ZM743.988 90.3662V94.1475C744.031 96.3031 743.598 98.3763 742.688 100.367H741.389V105.405H743.172V102H751.647V105.405H753.431V100.367H752.131V90.3662H743.988ZM750.176 100.367H744.719C745.521 98.5697 745.908 96.4821 745.879 94.1045V91.9883H750.176V100.367ZM757.212 90.3662H755.257V102H757.309L763.002 93.2881H763.045V102H765V90.3662H762.959L757.255 99.0782H757.212V90.3662ZM769.275 93.6856C769.483 92.3822 770.378 91.7305 771.961 91.7305C772.548 91.7305 773.085 91.8451 773.572 92.0742C774.066 92.3392 774.321 92.7868 774.335 93.417C774.335 93.9899 774.181 94.4304 773.873 94.7383C773.536 95.0606 772.942 95.2217 772.09 95.2217H771.037V96.7686H772.208C772.953 96.7686 773.551 96.9154 774.002 97.209C774.46 97.5313 774.697 98.029 774.711 98.7022C774.697 99.3754 774.432 99.8659 773.916 100.174C773.393 100.482 772.756 100.636 772.004 100.636C771.008 100.636 770.274 100.453 769.802 100.088C769.336 99.737 769.061 99.1569 768.975 98.3477H767.052C767.116 98.8633 767.234 99.3539 767.406 99.8194C767.585 100.292 767.857 100.718 768.223 101.098C768.602 101.477 769.107 101.771 769.737 101.979C770.368 102.201 771.152 102.319 772.09 102.333C773.4 102.319 774.5 102.025 775.388 101.452C776.269 100.879 776.716 100.049 776.73 98.96C776.73 98.4659 776.666 98.0433 776.537 97.6924C776.387 97.3343 776.19 97.0479 775.946 96.833C775.696 96.5967 775.438 96.4069 775.173 96.2637C774.879 96.1276 774.6 96.0166 774.335 95.9307C774.851 95.7946 775.312 95.5153 775.721 95.0928C776.136 94.6846 776.351 94.1045 776.365 93.3526C776.351 92.4001 775.946 91.6088 775.151 90.9785C774.356 90.3627 773.293 90.0476 771.961 90.0332C771.152 90.0332 770.479 90.1514 769.941 90.3877C769.368 90.6026 768.907 90.9034 768.556 91.2901C768.198 91.6553 767.933 92.0492 767.761 92.4717C767.567 92.9014 767.449 93.306 767.406 93.6856H769.275ZM780.694 93.9004C780.723 93.4206 780.906 92.93 781.242 92.4287C781.421 92.2067 781.686 92.017 782.037 91.8594C782.359 91.7305 782.793 91.666 783.337 91.666C785.156 91.666 786.058 92.2891 786.044 93.5352C786.044 93.8288 786.019 94.0616 785.969 94.2334C785.911 94.4268 785.772 94.5879 785.55 94.7168C785.17 94.9388 784.239 95.1071 782.757 95.2217C781.747 95.3005 780.949 95.4616 780.361 95.7051C779.76 95.9701 779.312 96.2923 779.019 96.6719C778.725 97.03 778.535 97.4131 778.449 97.8213C778.349 98.2152 778.306 98.5948 778.32 98.96C778.32 99.9912 778.664 100.8 779.352 101.388C780.01 102.004 780.877 102.319 781.951 102.333C782.517 102.319 783.029 102.244 783.487 102.107C783.924 101.993 784.304 101.846 784.626 101.667C785.278 101.273 785.786 100.865 786.151 100.442C786.166 100.894 786.312 101.295 786.592 101.646C786.857 102.011 787.397 102.201 788.214 102.215C788.436 102.201 788.636 102.172 788.815 102.129C788.973 102.086 789.127 102.043 789.277 102V100.571C789.041 100.629 788.826 100.657 788.633 100.657C788.21 100.657 787.999 100.417 787.999 99.9375V93.2881C787.985 92.5433 787.809 91.9489 787.473 91.5049C787.115 91.0681 786.688 90.7458 786.194 90.5381C785.693 90.3161 785.217 90.1693 784.766 90.0977C784.307 90.0547 783.946 90.0332 783.681 90.0332C782.234 90.0332 781.085 90.3269 780.232 90.9141C779.337 91.5157 778.89 92.5111 778.89 93.9004H780.694ZM786.044 97.9717C786.022 98.7666 785.654 99.4112 784.938 99.9053C784.25 100.421 783.423 100.686 782.456 100.7C781.017 100.686 780.304 100.006 780.318 98.6592C780.318 98.2725 780.415 97.9645 780.608 97.7354C780.766 97.5134 780.97 97.3379 781.221 97.209C781.486 97.0729 781.765 96.9763 782.059 96.919C782.324 96.8474 782.581 96.8044 782.832 96.7901C783.999 96.6254 784.798 96.4929 785.228 96.3926C785.65 96.2709 785.922 96.1599 786.044 96.0596V97.9717ZM793.263 90.3662H791.308V102H793.359L799.053 93.2881H799.096V102H801.051V90.3662H799.01L793.306 99.0782H793.263V90.3662ZM794.101 86.0264H793.005C792.976 86.5134 793.173 87.1221 793.596 87.8526C793.832 88.1892 794.176 88.4685 794.627 88.6905C795.085 88.9411 795.68 89.0664 796.41 89.0664C797.148 89.0664 797.742 88.9411 798.193 88.6905C798.637 88.4541 798.967 88.1677 799.182 87.8311C799.404 87.4945 799.55 87.1579 799.622 86.8213C799.679 86.4991 799.708 86.2341 799.708 86.0264H798.634C798.505 86.5134 798.286 86.918 797.979 87.2403C797.656 87.6055 797.119 87.7881 796.367 87.7881C795.622 87.7881 795.082 87.6127 794.745 87.2617C794.401 86.9395 794.187 86.5277 794.101 86.0264ZM805.874 90.3662H803.919V102H805.874V96.6719H811.31V102H813.265V90.3662H811.31V95.0498H805.874V90.3662ZM823.953 98.3477C823.939 98.806 823.674 99.2894 823.158 99.7979C822.9 100.02 822.585 100.21 822.213 100.367C821.848 100.546 821.432 100.636 820.967 100.636C818.718 100.607 817.594 99.3395 817.594 96.833H826.069C826.069 94.7347 825.658 93.084 824.834 91.8809C823.996 90.6634 822.743 90.0476 821.074 90.0332C819.169 90.0619 817.769 90.6778 816.874 91.8809C815.965 93.084 815.51 94.6237 815.51 96.5C815.51 98.2045 815.972 99.5902 816.896 100.657C817.791 101.76 819.051 102.319 820.677 102.333C821.586 102.319 822.356 102.186 822.986 101.936C823.602 101.699 824.107 101.391 824.501 101.012C824.902 100.618 825.21 100.185 825.425 99.7119C825.547 99.4613 825.65 99.225 825.736 99.003C825.808 98.7881 825.865 98.5697 825.908 98.3477H823.953ZM817.594 95.2647C817.594 94.3265 817.909 93.5209 818.539 92.8477C819.141 92.1602 819.889 91.8093 820.784 91.795C821.4 91.795 821.916 91.8809 822.331 92.0528C822.725 92.2461 823.047 92.5111 823.298 92.8477C823.563 93.1556 823.753 93.5209 823.867 93.9434C823.982 94.3588 824.046 94.7992 824.061 95.2647H817.594ZM833.428 91.795C834.137 91.795 834.695 91.9561 835.104 92.2784C835.512 92.6006 835.812 93.0124 836.006 93.5137C836.199 94.0078 836.325 94.5342 836.382 95.0928C836.425 95.6657 836.446 96.1992 836.446 96.6934C836.446 97.4597 836.35 98.0935 836.156 98.5948C835.956 99.1032 835.694 99.5114 835.372 99.8194C835.064 100.099 834.731 100.306 834.373 100.442C834.022 100.571 833.686 100.636 833.363 100.636C832.311 100.621 831.534 100.181 831.032 99.3145C830.502 98.4909 830.237 97.4346 830.237 96.1455C830.237 95.7373 830.27 95.2897 830.334 94.8028C830.391 94.3086 830.513 93.8324 830.699 93.3741C830.921 92.9229 831.243 92.5505 831.666 92.2569C832.11 91.9632 832.697 91.8093 833.428 91.795ZM828.282 106.598H830.237V100.636C830.517 101.108 830.921 101.506 831.451 101.828C831.981 102.15 832.626 102.319 833.385 102.333C834.366 102.319 835.197 102.104 835.877 101.689C836.536 101.28 837.048 100.754 837.413 100.109C838.115 98.7416 838.459 97.32 838.444 95.8448C838.444 94.1547 838.036 92.7689 837.22 91.6875C836.382 90.599 835.186 90.0476 833.632 90.0332C832.651 90.0476 831.895 90.2517 831.365 90.6455C831.1 90.8246 830.871 91.0323 830.678 91.2686C830.477 91.5121 830.287 91.7591 830.108 92.0098V90.3662H828.282V106.598Z" fill="#1D252F"/>
<path d="M681.974 122.76C683.377 122.745 684.484 122.914 685.293 123.265C686.102 123.651 686.514 124.436 686.528 125.617C686.514 126.527 686.199 127.254 685.583 127.798C684.967 128.371 684.144 128.657 683.112 128.657C682.396 128.657 681.827 128.539 681.404 128.303C680.96 128.088 680.62 127.809 680.384 127.465C680.183 127.1 680.036 126.72 679.943 126.326C679.843 125.947 679.786 125.574 679.771 125.209H677.773C677.773 126.777 678.228 128.023 679.138 128.947C680.033 129.914 681.315 130.405 682.983 130.419C684.981 130.39 686.417 129.86 687.291 128.829C688.158 127.848 688.591 126.699 688.591 125.381C688.576 124.342 688.344 123.53 687.893 122.942C687.42 122.384 686.79 121.986 686.002 121.75V121.707C686.467 121.578 686.911 121.256 687.334 120.74C687.764 120.21 687.986 119.455 688 118.474C687.986 117.256 687.567 116.264 686.743 115.498C685.891 114.753 684.702 114.374 683.177 114.359C682.181 114.374 681.354 114.528 680.695 114.821C680.022 115.129 679.503 115.541 679.138 116.057C678.765 116.551 678.507 117.099 678.364 117.7C678.214 118.302 678.139 118.896 678.139 119.483H680.062C680.09 119.09 680.155 118.696 680.255 118.302C680.341 117.915 680.488 117.553 680.695 117.217C680.917 116.88 681.225 116.608 681.619 116.4C681.984 116.214 682.475 116.121 683.091 116.121C683.692 116.121 684.176 116.2 684.541 116.357C684.913 116.522 685.207 116.737 685.422 117.002C685.644 117.253 685.791 117.514 685.862 117.786C685.941 118.065 685.98 118.33 685.98 118.581C685.98 119.183 685.869 119.659 685.647 120.01C685.411 120.346 685.103 120.604 684.724 120.783C684.344 120.926 683.918 121.023 683.445 121.073C682.973 121.116 682.482 121.138 681.974 121.138V122.76ZM692.651 120.912L693.317 116.626H699.935V114.714H691.835L690.675 123.093L692.372 123.179C693.117 122.212 694.076 121.721 695.251 121.707C696.246 121.707 697.066 121.994 697.711 122.566C698.355 123.168 698.685 124.031 698.699 125.155C698.685 126.158 698.398 126.989 697.84 127.647C697.26 128.349 696.454 128.707 695.423 128.722C694.528 128.722 693.786 128.51 693.199 128.088C692.612 127.673 692.254 127.021 692.125 126.133H690.105C690.22 126.978 690.446 127.68 690.782 128.238C691.119 128.797 691.531 129.237 692.018 129.56C692.497 129.868 693.017 130.086 693.575 130.215C694.105 130.351 694.628 130.419 695.144 130.419C696.361 130.405 697.349 130.193 698.108 129.785C698.868 129.384 699.44 128.89 699.827 128.303C700.207 127.716 700.468 127.114 700.611 126.498C700.733 125.882 700.794 125.363 700.794 124.94C700.765 123.329 700.228 122.09 699.183 121.224C698.173 120.371 697.002 119.945 695.67 119.945C694.975 119.945 694.388 120.042 693.908 120.235C693.407 120.407 692.988 120.633 692.651 120.912ZM702.609 118.323C702.624 119.405 703.003 120.296 703.748 120.998C704.471 121.736 705.359 122.112 706.412 122.126C707.501 122.112 708.396 121.729 709.098 120.977C709.799 120.26 710.158 119.376 710.172 118.323C710.158 117.235 709.792 116.34 709.076 115.638C708.374 114.929 707.486 114.567 706.412 114.553C705.359 114.567 704.471 114.929 703.748 115.638C703.003 116.34 702.624 117.235 702.609 118.323ZM704.167 118.323C704.167 117.707 704.389 117.185 704.833 116.755C705.241 116.347 705.768 116.135 706.412 116.121C707.042 116.135 707.572 116.347 708.002 116.755C708.41 117.17 708.621 117.693 708.636 118.323C708.621 118.953 708.41 119.473 708.002 119.881C707.587 120.332 707.049 120.558 706.391 120.558C705.775 120.558 705.263 120.354 704.854 119.945C704.396 119.551 704.167 119.011 704.167 118.323ZM713.062 126.369C713.076 127.458 713.455 128.353 714.2 129.055C714.916 129.785 715.804 130.158 716.864 130.172C717.946 130.158 718.841 129.778 719.55 129.033C720.252 128.317 720.61 127.429 720.624 126.369C720.61 125.288 720.244 124.393 719.528 123.684C718.819 122.982 717.931 122.624 716.864 122.609C715.804 122.624 714.916 122.982 714.2 123.684C713.455 124.393 713.076 125.288 713.062 126.369ZM714.619 126.369C714.619 125.753 714.838 125.234 715.274 124.812C715.69 124.396 716.22 124.181 716.864 124.167C717.494 124.181 718.021 124.396 718.443 124.812C718.859 125.22 719.074 125.739 719.088 126.369C719.074 126.999 718.859 127.522 718.443 127.938C718.035 128.389 717.502 128.614 716.843 128.614C716.227 128.614 715.711 128.41 715.296 128.002C714.845 127.601 714.619 127.057 714.619 126.369ZM716.596 114.381H715.393L706.616 130.44H707.798L716.596 114.381Z" fill="#00B2B2"/>
<path d="M660.031 348.026V358.146C660.003 359.836 659.562 360.996 658.71 361.626C658.524 361.769 658.32 361.902 658.098 362.023C657.861 362.152 657.618 362.245 657.367 362.303C656.887 362.453 656.39 362.528 655.874 362.528C655.394 362.528 654.918 362.453 654.445 362.303C653.958 362.16 653.518 361.927 653.124 361.604C652.73 361.254 652.415 360.799 652.179 360.24C651.914 359.667 651.781 358.955 651.781 358.103V348.026H649.633V358.693C649.611 360.219 650.102 361.54 651.104 362.657C652.086 363.803 653.64 364.39 655.767 364.419C657.965 364.39 659.584 363.789 660.622 362.614C661.668 361.468 662.19 360.061 662.19 358.393V348.026H660.031ZM672.61 355.814L677.96 348.026H675.382L671.332 354.149L667.293 348.026H664.586L669.925 355.814L664.231 364H666.831L671.246 357.447L675.543 364H678.196L672.61 355.814ZM688.165 352.366H686.21V364H688.262L693.955 355.288H693.998V364H695.953V352.366H693.912L688.208 361.078H688.165V352.366ZM708.103 356.276C708.06 355.209 707.701 354.243 707.028 353.376C706.692 352.968 706.258 352.638 705.729 352.388C705.184 352.151 704.525 352.033 703.752 352.033C701.847 352.062 700.447 352.685 699.552 353.902C698.642 355.12 698.188 356.652 698.188 358.5C698.188 360.204 698.649 361.59 699.573 362.657C700.468 363.76 701.736 364.319 703.376 364.333C704.243 364.319 704.969 364.165 705.557 363.871C706.144 363.592 706.613 363.23 706.964 362.786C707.329 362.335 707.608 361.852 707.802 361.336C707.974 360.842 708.074 360.358 708.103 359.886H706.212C705.789 361.705 704.866 362.621 703.44 362.636C702.782 362.636 702.248 362.496 701.84 362.217C701.41 361.938 701.088 361.579 700.873 361.143C700.651 360.684 700.497 360.201 700.411 359.692C700.318 359.177 700.271 358.668 700.271 358.167C700.257 357.086 700.493 356.097 700.98 355.202C701.446 354.293 702.273 353.824 703.462 353.795C705.095 353.824 706.011 354.651 706.212 356.276H708.103ZM719.317 356.276C719.274 355.209 718.916 354.243 718.243 353.376C717.907 352.968 717.473 352.638 716.943 352.388C716.399 352.151 715.74 352.033 714.967 352.033C713.062 352.062 711.662 352.685 710.767 353.902C709.857 355.12 709.402 356.652 709.402 358.5C709.402 360.204 709.864 361.59 710.788 362.657C711.683 363.76 712.951 364.319 714.591 364.333C715.457 364.319 716.184 364.165 716.771 363.871C717.359 363.592 717.828 363.23 718.179 362.786C718.544 362.335 718.823 361.852 719.017 361.336C719.188 360.842 719.289 360.358 719.317 359.886H717.427C717.004 361.705 716.08 362.621 714.655 362.636C713.996 362.636 713.463 362.496 713.055 362.217C712.625 361.938 712.303 361.579 712.088 361.143C711.866 360.684 711.712 360.201 711.626 359.692C711.533 359.177 711.486 358.668 711.486 358.167C711.472 357.086 711.708 356.097 712.195 355.202C712.661 354.293 713.488 353.824 714.677 353.795C716.31 353.824 717.226 354.651 717.427 356.276H719.317ZM722.422 352.366V358.629C722.422 360.276 722.311 361.347 722.089 361.841C721.989 362.106 721.835 362.281 721.627 362.367C721.434 362.475 721.19 362.528 720.896 362.528C720.546 362.528 720.284 362.514 720.112 362.485V364C720.42 364.1 720.836 364.158 721.358 364.172C722.297 364.172 723.038 363.792 723.582 363.033C724.098 362.281 724.363 361.035 724.377 359.295V353.988H728.975V364H730.93V352.366H722.422ZM741.607 360.348C741.593 360.806 741.328 361.289 740.812 361.798C740.555 362.02 740.24 362.21 739.867 362.367C739.502 362.546 739.087 362.636 738.621 362.636C736.372 362.607 735.248 361.34 735.248 358.833H743.724C743.724 356.735 743.312 355.084 742.488 353.881C741.65 352.663 740.397 352.048 738.729 352.033C736.824 352.062 735.424 352.678 734.528 353.881C733.619 355.084 733.164 356.624 733.164 358.5C733.164 360.204 733.626 361.59 734.55 362.657C735.445 363.76 736.705 364.319 738.331 364.333C739.241 364.319 740.01 364.186 740.641 363.936C741.257 363.699 741.761 363.391 742.155 363.012C742.556 362.618 742.864 362.185 743.079 361.712C743.201 361.461 743.305 361.225 743.391 361.003C743.462 360.788 743.52 360.57 743.562 360.348H741.607ZM735.248 357.265C735.248 356.326 735.563 355.521 736.193 354.848C736.795 354.16 737.543 353.809 738.438 353.795C739.054 353.795 739.57 353.881 739.985 354.053C740.379 354.246 740.701 354.511 740.952 354.848C741.217 355.156 741.407 355.521 741.521 355.943C741.636 356.359 741.701 356.799 741.715 357.265H735.248ZM747.322 352.366V356.147C747.365 358.303 746.932 360.376 746.022 362.367H744.723V367.405H746.506V364H754.981V367.405H756.765V362.367H755.465V352.366H747.322ZM753.51 362.367H748.053C748.855 360.57 749.242 358.482 749.213 356.104V353.988H753.51V362.367ZM757.957 358.167C757.943 359.735 758.383 361.135 759.278 362.367C760.152 363.635 761.506 364.29 763.339 364.333C765.208 364.29 766.572 363.635 767.432 362.367C768.298 361.135 768.731 359.735 768.731 358.167C768.731 356.599 768.298 355.199 767.432 353.967C766.572 352.706 765.208 352.062 763.339 352.033C761.506 352.062 760.152 352.706 759.278 353.967C758.383 355.199 757.943 356.599 757.957 358.167ZM759.955 358.167C759.955 357.759 760.005 357.297 760.105 356.781C760.213 356.287 760.385 355.804 760.621 355.331C760.865 354.866 761.215 354.486 761.674 354.192C762.111 353.899 762.666 353.745 763.339 353.73C764.048 353.745 764.628 353.899 765.079 354.192C765.537 354.486 765.881 354.866 766.11 355.331C766.347 355.804 766.519 356.287 766.626 356.781C766.698 357.297 766.733 357.759 766.733 358.167C766.733 358.554 766.698 358.994 766.626 359.488C766.519 360.004 766.347 360.502 766.11 360.981C765.881 361.454 765.537 361.837 765.079 362.131C764.628 362.467 764.048 362.636 763.339 362.636C762.666 362.636 762.111 362.467 761.674 362.131C761.215 361.837 760.865 361.454 760.621 360.981C760.385 360.502 760.213 360.004 760.105 359.488C760.005 358.994 759.955 358.554 759.955 358.167ZM772.921 353.988H775.811C776.656 353.988 777.257 354.106 777.615 354.343C777.938 354.593 778.099 354.951 778.099 355.417C778.099 356.047 777.93 356.495 777.594 356.76C777.221 357.039 776.613 357.179 775.768 357.179H772.921V353.988ZM772.921 358.726H776.229C777.898 358.726 778.747 359.341 778.775 360.573C778.761 361.805 777.977 362.403 776.423 362.367H772.921V358.726ZM770.966 364H776.466C779.295 363.957 780.716 362.929 780.73 360.917C780.73 360.409 780.659 359.968 780.516 359.596C780.351 359.245 780.136 358.955 779.871 358.726C779.628 358.475 779.352 358.274 779.044 358.124C778.736 357.995 778.421 357.902 778.099 357.845C778.621 357.68 779.083 357.394 779.484 356.985C779.85 356.556 780.039 356.004 780.054 355.331C780.054 354.493 779.746 353.791 779.13 353.226C778.5 352.667 777.54 352.381 776.251 352.366H770.966V364ZM784.694 355.9C784.723 355.421 784.906 354.93 785.242 354.429C785.421 354.207 785.686 354.017 786.037 353.859C786.359 353.73 786.793 353.666 787.337 353.666C789.156 353.666 790.058 354.289 790.044 355.535C790.044 355.829 790.019 356.062 789.969 356.233C789.911 356.427 789.772 356.588 789.55 356.717C789.17 356.939 788.239 357.107 786.757 357.222C785.747 357.3 784.949 357.462 784.361 357.705C783.76 357.97 783.312 358.292 783.019 358.672C782.725 359.03 782.535 359.413 782.449 359.821C782.349 360.215 782.306 360.595 782.32 360.96C782.32 361.991 782.664 362.8 783.352 363.388C784.01 364.004 784.877 364.319 785.951 364.333C786.517 364.319 787.029 364.243 787.487 364.107C787.924 363.993 788.304 363.846 788.626 363.667C789.278 363.273 789.786 362.865 790.151 362.442C790.166 362.894 790.312 363.295 790.592 363.646C790.857 364.011 791.397 364.201 792.214 364.215C792.436 364.201 792.636 364.172 792.815 364.129C792.973 364.086 793.127 364.043 793.277 364V362.571C793.041 362.629 792.826 362.657 792.633 362.657C792.21 362.657 791.999 362.417 791.999 361.938V355.288C791.985 354.543 791.809 353.949 791.473 353.505C791.115 353.068 790.688 352.746 790.194 352.538C789.693 352.316 789.217 352.169 788.766 352.098C788.307 352.055 787.946 352.033 787.681 352.033C786.234 352.033 785.085 352.327 784.232 352.914C783.337 353.516 782.89 354.511 782.89 355.9H784.694ZM790.044 359.972C790.022 360.767 789.654 361.411 788.938 361.905C788.25 362.421 787.423 362.686 786.456 362.7C785.017 362.686 784.304 362.006 784.318 360.659C784.318 360.272 784.415 359.965 784.608 359.735C784.766 359.513 784.97 359.338 785.221 359.209C785.486 359.073 785.765 358.976 786.059 358.919C786.324 358.847 786.581 358.804 786.832 358.79C787.999 358.625 788.798 358.493 789.228 358.393C789.65 358.271 789.922 358.16 790.044 358.06V359.972ZM794.008 352.366V353.988H797.843V364H799.798V353.988H803.622V352.366H794.008ZM813.15 360.348C813.136 360.806 812.871 361.289 812.355 361.798C812.098 362.02 811.783 362.21 811.41 362.367C811.045 362.546 810.63 362.636 810.164 362.636C807.915 362.607 806.791 361.34 806.791 358.833H815.267C815.267 356.735 814.855 355.084 814.031 353.881C813.193 352.663 811.94 352.048 810.271 352.033C808.367 352.062 806.966 352.678 806.071 353.881C805.162 355.084 804.707 356.624 804.707 358.5C804.707 360.204 805.169 361.59 806.093 362.657C806.988 363.76 808.248 364.319 809.874 364.333C810.784 364.319 811.553 364.186 812.184 363.936C812.799 363.699 813.304 363.391 813.698 363.012C814.099 362.618 814.407 362.185 814.622 361.712C814.744 361.461 814.848 361.225 814.934 361.003C815.005 360.788 815.062 360.57 815.105 360.348H813.15ZM806.791 357.265C806.791 356.326 807.106 355.521 807.736 354.848C808.338 354.16 809.086 353.809 809.981 353.795C810.597 353.795 811.113 353.881 811.528 354.053C811.922 354.246 812.244 354.511 812.495 354.848C812.76 355.156 812.95 355.521 813.064 355.943C813.179 356.359 813.243 356.799 813.258 357.265H806.791ZM818.65 352.366V358.629C818.65 360.276 818.539 361.347 818.317 361.841C818.217 362.106 818.063 362.281 817.855 362.367C817.662 362.475 817.419 362.528 817.125 362.528C816.774 362.528 816.513 362.514 816.341 362.485V364C816.649 364.1 817.064 364.158 817.587 364.172C818.525 364.172 819.266 363.792 819.811 363.033C820.326 362.281 820.591 361.035 820.605 359.295V353.988H825.203V364H827.158V352.366H818.65ZM831.981 352.366H830.026V364H834.796C836.371 363.986 837.503 363.649 838.19 362.99C838.849 362.346 839.179 361.562 839.179 360.638C839.179 359.578 838.821 358.718 838.104 358.06C837.367 357.401 836.25 357.064 834.753 357.05H831.981V352.366ZM831.981 358.672H834.774C836.379 358.686 837.181 359.302 837.181 360.52C837.181 361.15 837.005 361.612 836.654 361.905C836.296 362.213 835.67 362.367 834.774 362.367H831.981V358.672Z" fill="#1D252F"/>
<path d="M655.96 376.359H654.445C654.152 377.591 653.697 378.382 653.081 378.733C652.451 379.099 651.506 379.303 650.245 379.346V380.914H653.876V392H655.96V376.359ZM663.651 382.912L664.317 378.626H670.935V376.714H662.835L661.675 385.093L663.372 385.179C664.117 384.212 665.076 383.721 666.251 383.707C667.246 383.707 668.066 383.993 668.711 384.566C669.355 385.168 669.685 386.031 669.699 387.155C669.685 388.158 669.398 388.989 668.84 389.647C668.26 390.349 667.454 390.707 666.423 390.722C665.528 390.722 664.786 390.51 664.199 390.088C663.612 389.673 663.254 389.021 663.125 388.133H661.105C661.22 388.978 661.446 389.68 661.782 390.238C662.119 390.797 662.531 391.237 663.018 391.56C663.497 391.868 664.017 392.086 664.575 392.215C665.105 392.351 665.628 392.419 666.144 392.419C667.361 392.405 668.349 392.193 669.108 391.785C669.868 391.384 670.44 390.89 670.827 390.303C671.207 389.715 671.468 389.114 671.611 388.498C671.733 387.882 671.794 387.363 671.794 386.94C671.765 385.329 671.228 384.09 670.183 383.224C669.173 382.371 668.002 381.945 666.67 381.945C665.975 381.945 665.388 382.042 664.908 382.235C664.407 382.407 663.988 382.633 663.651 382.912ZM673.609 380.323C673.624 381.405 674.003 382.296 674.748 382.998C675.471 383.736 676.359 384.112 677.412 384.126C678.501 384.112 679.396 383.729 680.098 382.977C680.799 382.26 681.158 381.376 681.172 380.323C681.158 379.235 680.792 378.34 680.076 377.638C679.374 376.929 678.486 376.567 677.412 376.553C676.359 376.567 675.471 376.929 674.748 377.638C674.003 378.34 673.624 379.235 673.609 380.323ZM675.167 380.323C675.167 379.707 675.389 379.185 675.833 378.755C676.241 378.347 676.768 378.135 677.412 378.121C678.042 378.135 678.572 378.347 679.002 378.755C679.41 379.17 679.621 379.693 679.636 380.323C679.621 380.953 679.41 381.473 679.002 381.881C678.587 382.332 678.049 382.558 677.391 382.558C676.775 382.558 676.263 382.354 675.854 381.945C675.396 381.551 675.167 381.011 675.167 380.323ZM684.062 388.369C684.076 389.458 684.455 390.353 685.2 391.055C685.916 391.785 686.804 392.158 687.864 392.172C688.946 392.158 689.841 391.778 690.55 391.033C691.252 390.317 691.61 389.429 691.624 388.369C691.61 387.288 691.244 386.393 690.528 385.684C689.819 384.982 688.931 384.624 687.864 384.609C686.804 384.624 685.916 384.982 685.2 385.684C684.455 386.393 684.076 387.288 684.062 388.369ZM685.619 388.369C685.619 387.753 685.838 387.234 686.274 386.812C686.69 386.396 687.22 386.181 687.864 386.167C688.494 386.181 689.021 386.396 689.443 386.812C689.859 387.22 690.074 387.739 690.088 388.369C690.074 388.999 689.859 389.522 689.443 389.938C689.035 390.389 688.502 390.614 687.843 390.614C687.227 390.614 686.711 390.41 686.296 390.002C685.845 389.601 685.619 389.057 685.619 388.369ZM687.596 376.381H686.393L677.616 392.44H678.798L687.596 376.381Z" fill="#5B6BC8"/>
<path d="M64.7812 349.874H69.1641C70.0879 349.874 70.8434 350.067 71.4307 350.454C72.0179 350.848 72.3187 351.543 72.333 352.538C72.3187 353.598 72.0179 354.339 71.4307 354.762C70.8434 355.213 70.0592 355.431 69.0781 355.417H64.7812V349.874ZM64.7812 357.265H69.8193C71.5381 357.236 72.7627 356.717 73.4932 355.707C74.2165 354.74 74.5674 353.677 74.5459 352.517C74.5316 351.199 74.1162 350.121 73.2998 349.283C72.4762 348.46 71.3161 348.041 69.8193 348.026H62.6328V364H64.7812V357.265ZM76.9736 352.366V364H78.9287V357.243C78.9287 356.362 79.2008 355.621 79.7451 355.02C80.2607 354.439 80.9733 354.142 81.8828 354.128H82.6455V352.098C82.5023 352.055 82.3268 352.033 82.1191 352.033C81.403 352.033 80.7799 352.237 80.25 352.646C79.7057 353.061 79.2367 353.612 78.8428 354.3H78.7998V352.366H76.9736ZM83.666 358.167C83.6517 359.735 84.0921 361.135 84.9873 362.367C85.861 363.635 87.2145 364.29 89.0479 364.333C90.917 364.29 92.2812 363.635 93.1406 362.367C94.0072 361.135 94.4404 359.735 94.4404 358.167C94.4404 356.599 94.0072 355.199 93.1406 353.967C92.2812 352.706 90.917 352.062 89.0479 352.033C87.2145 352.062 85.861 352.706 84.9873 353.967C84.0921 355.199 83.6517 356.599 83.666 358.167ZM85.6641 358.167C85.6641 357.759 85.7142 357.297 85.8145 356.781C85.9219 356.287 86.0938 355.804 86.3301 355.331C86.5736 354.866 86.9245 354.486 87.3828 354.192C87.8197 353.899 88.3747 353.745 89.0479 353.73C89.7568 353.745 90.3369 353.899 90.7881 354.192C91.2464 354.486 91.5902 354.866 91.8193 355.331C92.0557 355.804 92.2275 356.287 92.335 356.781C92.4066 357.297 92.4424 357.759 92.4424 358.167C92.4424 358.554 92.4066 358.994 92.335 359.488C92.2275 360.004 92.0557 360.502 91.8193 360.981C91.5902 361.454 91.2464 361.837 90.7881 362.131C90.3369 362.467 89.7568 362.636 89.0479 362.636C88.3747 362.636 87.8197 362.467 87.3828 362.131C86.9245 361.837 86.5736 361.454 86.3301 360.981C86.0938 360.502 85.9219 360.004 85.8145 359.488C85.7142 358.994 85.6641 358.554 85.6641 358.167ZM106.203 348.026H104.248V354.01C103.983 353.559 103.578 353.118 103.034 352.688C102.769 352.488 102.447 352.327 102.067 352.205C101.702 352.09 101.262 352.033 100.746 352.033C99.2064 352.062 98.0391 352.62 97.2441 353.709C96.4421 354.79 96.041 356.176 96.041 357.866C96.041 358.554 96.1198 359.27 96.2773 360.015C96.4277 360.781 96.6855 361.486 97.0508 362.131C97.416 362.775 97.9281 363.295 98.5869 363.688C99.2171 364.104 100.026 364.319 101.015 364.333C101.595 364.333 102.186 364.208 102.787 363.957C103.374 363.692 103.883 363.173 104.312 362.399H104.355V364H106.203V348.026ZM101.229 353.795C101.931 353.795 102.49 353.956 102.905 354.278C103.313 354.601 103.614 355.012 103.808 355.514C103.994 356.008 104.116 356.534 104.173 357.093C104.223 357.666 104.248 358.199 104.248 358.693C104.248 359.46 104.151 360.093 103.958 360.595C103.75 361.103 103.485 361.511 103.163 361.819C102.855 362.099 102.526 362.306 102.175 362.442C101.824 362.571 101.487 362.636 101.165 362.636C100.105 362.621 99.3281 362.181 98.834 361.314C98.304 360.491 98.0391 359.435 98.0391 358.146C98.0391 357.737 98.0677 357.29 98.125 356.803C98.1823 356.309 98.3076 355.832 98.501 355.374C98.723 354.923 99.0452 354.55 99.4678 354.257C99.9118 353.963 100.499 353.809 101.229 353.795ZM109.071 352.366V360.724C109.071 361.397 109.197 361.97 109.447 362.442C109.684 362.894 109.977 363.266 110.328 363.56C110.708 363.825 111.119 364.014 111.563 364.129C112 364.265 112.43 364.333 112.853 364.333C113.791 364.319 114.546 364.136 115.119 363.785C115.678 363.427 116.154 362.919 116.548 362.26L116.569 362.303V364H118.417V352.366H116.462V358.769C116.462 359.191 116.419 359.621 116.333 360.058C116.233 360.516 116.057 360.935 115.807 361.314C115.57 361.694 115.241 362.002 114.818 362.238C114.389 362.503 113.866 362.636 113.25 362.636C112.62 362.636 112.101 362.446 111.692 362.066C111.248 361.687 111.026 361.024 111.026 360.079V352.366H109.071ZM130.577 356.276C130.534 355.209 130.176 354.243 129.503 353.376C129.166 352.968 128.733 352.638 128.203 352.388C127.659 352.151 127 352.033 126.227 352.033C124.322 352.062 122.922 352.685 122.026 353.902C121.117 355.12 120.662 356.652 120.662 358.5C120.662 360.204 121.124 361.59 122.048 362.657C122.943 363.76 124.211 364.319 125.851 364.333C126.717 364.319 127.444 364.165 128.031 363.871C128.618 363.592 129.088 363.23 129.438 362.786C129.804 362.335 130.083 361.852 130.276 361.336C130.448 360.842 130.549 360.358 130.577 359.886H128.687C128.264 361.705 127.34 362.621 125.915 362.636C125.256 362.636 124.723 362.496 124.314 362.217C123.885 361.938 123.562 361.579 123.348 361.143C123.126 360.684 122.972 360.201 122.886 359.692C122.793 359.177 122.746 358.668 122.746 358.167C122.732 357.086 122.968 356.097 123.455 355.202C123.921 354.293 124.748 353.824 125.937 353.795C127.569 353.824 128.486 354.651 128.687 356.276H130.577ZM132.973 349.154V352.388H131.415V354.01H132.973V361.669C132.973 362.02 133.008 362.342 133.08 362.636C133.145 362.944 133.263 363.209 133.435 363.431C133.614 363.646 133.857 363.821 134.165 363.957C134.473 364.086 134.86 364.158 135.325 364.172C135.619 364.172 136.102 364.115 136.775 364V362.485H136.099C135.877 362.5 135.633 362.446 135.368 362.324C135.089 362.21 134.942 361.955 134.928 361.562V354.01H136.797V352.388H134.928V349.154H132.973ZM157.733 356.019C157.719 357.924 157.236 359.47 156.283 360.659C155.302 361.877 153.938 362.493 152.19 362.507C150.443 362.493 149.086 361.869 148.119 360.638C147.138 359.435 146.647 357.881 146.647 355.976C146.647 354.049 147.138 352.499 148.119 351.324C149.086 350.143 150.443 349.545 152.19 349.53C153.938 349.545 155.302 350.15 156.283 351.346C157.236 352.52 157.719 354.078 157.733 356.019ZM159.957 356.019C159.957 355.123 159.839 354.192 159.603 353.226C159.338 352.252 158.911 351.342 158.324 350.497C157.737 349.645 156.938 348.954 155.929 348.424C155.435 348.159 154.88 347.955 154.264 347.812C153.626 347.675 152.935 347.607 152.19 347.607C151.46 347.607 150.787 347.675 150.171 347.812C149.555 347.955 148.996 348.159 148.495 348.424C147.485 348.954 146.687 349.645 146.1 350.497C145.512 351.342 145.086 352.252 144.821 353.226C144.556 354.192 144.424 355.123 144.424 356.019C144.424 356.878 144.556 357.795 144.821 358.769C145.086 359.735 145.512 360.645 146.1 361.497C146.687 362.342 147.485 363.03 148.495 363.56C149.491 364.118 150.722 364.405 152.19 364.419C153.687 364.405 154.933 364.118 155.929 363.56C156.938 363.03 157.737 362.342 158.324 361.497C158.911 360.645 159.338 359.735 159.603 358.769C159.839 357.795 159.957 356.878 159.957 356.019ZM161.278 352.366L164.619 364H166.639L168.905 354.998H168.948L171.312 364H173.331L176.693 352.366H174.76L172.407 361.497H172.364L170.098 352.366H167.917L165.672 361.497H165.607L163.384 352.366H161.278ZM178.444 352.366V364H180.399V357.662C180.399 356.874 180.518 356.223 180.754 355.707C180.962 355.206 181.227 354.815 181.549 354.536C181.871 354.243 182.201 354.046 182.537 353.945C182.874 353.845 183.182 353.795 183.461 353.795C184.413 353.795 185.072 354.042 185.438 354.536C185.774 355.052 185.942 355.814 185.942 356.824V364H187.908V356.083C187.908 355.259 187.79 354.576 187.554 354.031C187.303 353.508 186.974 353.1 186.565 352.807C186.164 352.499 185.731 352.291 185.266 352.184C184.779 352.083 184.302 352.033 183.837 352.033C182.856 352.062 182.079 352.312 181.506 352.785C181.227 352.986 180.99 353.197 180.797 353.419C180.611 353.655 180.457 353.852 180.335 354.01H180.271V352.366H178.444ZM198.586 360.348C198.572 360.806 198.307 361.289 197.791 361.798C197.533 362.02 197.218 362.21 196.846 362.367C196.48 362.546 196.065 362.636 195.6 362.636C193.351 362.607 192.227 361.34 192.227 358.833H200.702C200.702 356.735 200.29 355.084 199.467 353.881C198.629 352.663 197.376 352.048 195.707 352.033C193.802 352.062 192.402 352.678 191.507 353.881C190.597 355.084 190.143 356.624 190.143 358.5C190.143 360.204 190.604 361.59 191.528 362.657C192.424 363.76 193.684 364.319 195.31 364.333C196.219 364.319 196.989 364.186 197.619 363.936C198.235 363.699 198.74 363.391 199.134 363.012C199.535 362.618 199.843 362.185 200.058 361.712C200.179 361.461 200.283 361.225 200.369 361.003C200.441 360.788 200.498 360.57 200.541 360.348H198.586ZM192.227 357.265C192.227 356.326 192.542 355.521 193.172 354.848C193.773 354.16 194.522 353.809 195.417 353.795C196.033 353.795 196.549 353.881 196.964 354.053C197.358 354.246 197.68 354.511 197.931 354.848C198.196 355.156 198.385 355.521 198.5 355.943C198.615 356.359 198.679 356.799 198.693 357.265H192.227ZM202.915 352.366V364H204.87V357.243C204.87 356.362 205.142 355.621 205.687 355.02C206.202 354.439 206.915 354.142 207.824 354.128H208.587V352.098C208.444 352.055 208.268 352.033 208.061 352.033C207.344 352.033 206.721 352.237 206.191 352.646C205.647 353.061 205.178 353.612 204.784 354.3H204.741V352.366H202.915Z" fill="#1D252F"/>
<path d="M68.96 376.359H67.4453C67.1517 377.591 66.6969 378.382 66.0811 378.733C65.4508 379.099 64.5055 379.303 63.2451 379.346V380.914H66.876V392H68.96V376.359ZM76.6514 382.912L77.3174 378.626H83.9346V376.714H75.835L74.6748 385.093L76.3721 385.179C77.1169 384.212 78.0765 383.721 79.251 383.707C80.2464 383.707 81.0664 383.993 81.7109 384.566C82.3555 385.168 82.6849 386.031 82.6992 387.155C82.6849 388.158 82.3984 388.989 81.8398 389.647C81.2598 390.349 80.4541 390.707 79.4229 390.722C78.5277 390.722 77.7865 390.51 77.1992 390.088C76.612 389.673 76.2539 389.021 76.125 388.133H74.1055C74.2201 388.978 74.4456 389.68 74.7822 390.238C75.1188 390.797 75.5306 391.237 76.0176 391.56C76.4974 391.868 77.0166 392.086 77.5752 392.215C78.1051 392.351 78.6279 392.419 79.1436 392.419C80.361 392.405 81.3493 392.193 82.1084 391.785C82.8675 391.384 83.4404 390.89 83.8271 390.303C84.2067 389.715 84.4681 389.114 84.6113 388.498C84.7331 387.882 84.7939 387.363 84.7939 386.94C84.7653 385.329 84.2282 384.09 83.1826 383.224C82.1729 382.371 81.002 381.945 79.6699 381.945C78.9753 381.945 78.388 382.042 77.9082 382.235C77.4069 382.407 76.988 382.633 76.6514 382.912ZM86.6094 380.323C86.6237 381.405 87.0033 382.296 87.748 382.998C88.4714 383.736 89.3594 384.112 90.4121 384.126C91.5007 384.112 92.3958 383.729 93.0977 382.977C93.7995 382.26 94.1576 381.376 94.1719 380.323C94.1576 379.235 93.7923 378.34 93.0762 377.638C92.3743 376.929 91.4863 376.567 90.4121 376.553C89.3594 376.567 88.4714 376.929 87.748 377.638C87.0033 378.34 86.6237 379.235 86.6094 380.323ZM88.167 380.323C88.167 379.707 88.389 379.185 88.833 378.755C89.2412 378.347 89.7676 378.135 90.4121 378.121C91.0423 378.135 91.5723 378.347 92.002 378.755C92.4102 379.17 92.6214 379.693 92.6357 380.323C92.6214 380.953 92.4102 381.473 92.002 381.881C91.5866 382.332 91.0495 382.558 90.3906 382.558C89.7747 382.558 89.2627 382.354 88.8545 381.945C88.3962 381.551 88.167 381.011 88.167 380.323ZM97.0615 388.369C97.0758 389.458 97.4554 390.353 98.2002 391.055C98.9163 391.785 99.8044 392.158 100.864 392.172C101.946 392.158 102.841 391.778 103.55 391.033C104.252 390.317 104.61 389.429 104.624 388.369C104.61 387.288 104.244 386.393 103.528 385.684C102.819 384.982 101.931 384.624 100.864 384.609C99.8044 384.624 98.9163 384.982 98.2002 385.684C97.4554 386.393 97.0758 387.288 97.0615 388.369ZM98.6191 388.369C98.6191 387.753 98.8376 387.234 99.2744 386.812C99.6898 386.396 100.22 386.181 100.864 386.167C101.494 386.181 102.021 386.396 102.443 386.812C102.859 387.22 103.074 387.739 103.088 388.369C103.074 388.999 102.859 389.522 102.443 389.938C102.035 390.389 101.502 390.614 100.843 390.614C100.227 390.614 99.7113 390.41 99.2959 390.002C98.8447 389.601 98.6191 389.057 98.6191 388.369ZM100.596 376.381H99.3926L90.6162 392.44H91.7979L100.596 376.381Z" fill="#22289B"/>
<path d="M12.0312 226.026V236.146C12.0026 237.836 11.5622 238.996 10.71 239.626C10.5238 239.769 10.3197 239.902 10.0977 240.023C9.86133 240.152 9.61784 240.246 9.36719 240.303C8.88737 240.453 8.38965 240.528 7.87402 240.528C7.39421 240.528 6.91797 240.453 6.44531 240.303C5.95833 240.16 5.5179 239.927 5.12402 239.605C4.73014 239.254 4.41504 238.799 4.17871 238.24C3.91374 237.667 3.78125 236.955 3.78125 236.103V226.026H1.63281V236.693C1.61133 238.219 2.10189 239.54 3.10449 240.657C4.08561 241.803 5.63965 242.39 7.7666 242.419C9.96517 242.39 11.5837 241.789 12.6221 240.614C13.6676 239.468 14.1904 238.061 14.1904 236.393V226.026H12.0312ZM24.6104 233.815L29.96 226.026H27.3818L23.332 232.149L19.293 226.026H16.5859L21.9248 233.815L16.2314 242H18.8311L23.2461 235.447L27.543 242H30.1963L24.6104 233.815ZM38.21 230.366V242H40.165V231.988H45.6006V242H47.5557V230.366H38.21ZM55.5801 231.795C56.2891 231.795 56.8477 231.956 57.2559 232.278C57.6641 232.601 57.9648 233.012 58.1582 233.514C58.3516 234.008 58.4769 234.534 58.5342 235.093C58.5771 235.666 58.5986 236.199 58.5986 236.693C58.5986 237.46 58.502 238.093 58.3086 238.595C58.1081 239.103 57.8467 239.511 57.5244 239.819C57.2165 240.099 56.8835 240.306 56.5254 240.442C56.1745 240.571 55.8379 240.636 55.5156 240.636C54.4629 240.621 53.6859 240.181 53.1846 239.315C52.6546 238.491 52.3896 237.435 52.3896 236.146C52.3896 235.737 52.4219 235.29 52.4863 234.803C52.5436 234.309 52.6654 233.832 52.8516 233.374C53.0736 232.923 53.3958 232.551 53.8184 232.257C54.2624 231.963 54.8496 231.809 55.5801 231.795ZM50.4346 246.598H52.3896V240.636C52.6689 241.108 53.0736 241.506 53.6035 241.828C54.1335 242.15 54.778 242.319 55.5371 242.333C56.5182 242.319 57.349 242.104 58.0293 241.689C58.6882 241.28 59.2002 240.754 59.5654 240.109C60.2673 238.742 60.611 237.32 60.5967 235.845C60.5967 234.155 60.1885 232.769 59.3721 231.688C58.5342 230.599 57.3382 230.048 55.7842 230.033C54.8031 230.048 54.0475 230.252 53.5176 230.646C53.2526 230.825 53.0234 231.032 52.8301 231.269C52.6296 231.512 52.4398 231.759 52.2607 232.01V230.366H50.4346V246.598ZM62.1973 236.167C62.1829 237.735 62.6234 239.135 63.5186 240.367C64.3923 241.635 65.7458 242.29 67.5791 242.333C69.4482 242.29 70.8125 241.635 71.6719 240.367C72.5384 239.135 72.9717 237.735 72.9717 236.167C72.9717 234.599 72.5384 233.199 71.6719 231.967C70.8125 230.706 69.4482 230.062 67.5791 230.033C65.7458 230.062 64.3923 230.706 63.5186 231.967C62.6234 233.199 62.1829 234.599 62.1973 236.167ZM64.1953 236.167C64.1953 235.759 64.2454 235.297 64.3457 234.781C64.4531 234.287 64.625 233.804 64.8613 233.331C65.1048 232.866 65.4557 232.486 65.9141 232.192C66.3509 231.899 66.9059 231.745 67.5791 231.731C68.2881 231.745 68.8682 231.899 69.3193 232.192C69.7777 232.486 70.1214 232.866 70.3506 233.331C70.5869 233.804 70.7588 234.287 70.8662 234.781C70.9378 235.297 70.9736 235.759 70.9736 236.167C70.9736 236.554 70.9378 236.994 70.8662 237.488C70.7588 238.004 70.5869 238.502 70.3506 238.982C70.1214 239.454 69.7777 239.837 69.3193 240.131C68.8682 240.468 68.2881 240.636 67.5791 240.636C66.9059 240.636 66.3509 240.468 65.9141 240.131C65.4557 239.837 65.1048 239.454 64.8613 238.982C64.625 238.502 64.4531 238.004 64.3457 237.488C64.2454 236.994 64.1953 236.554 64.1953 236.167ZM83.0156 238.348C83.0013 238.806 82.7363 239.289 82.2207 239.798C81.9629 240.02 81.6478 240.21 81.2754 240.367C80.9102 240.546 80.4948 240.636 80.0293 240.636C77.7806 240.607 76.6562 239.34 76.6562 236.833H85.1318C85.1318 234.735 84.7201 233.084 83.8965 231.881C83.0586 230.663 81.8053 230.048 80.1367 230.033C78.2318 230.062 76.8317 230.678 75.9365 231.881C75.027 233.084 74.5723 234.624 74.5723 236.5C74.5723 238.204 75.0342 239.59 75.958 240.657C76.8532 241.76 78.1136 242.319 79.7393 242.333C80.6488 242.319 81.4186 242.186 82.0488 241.936C82.6647 241.699 83.1696 241.391 83.5635 241.012C83.9645 240.618 84.2725 240.185 84.4873 239.712C84.609 239.461 84.7129 239.225 84.7988 239.003C84.8704 238.788 84.9277 238.57 84.9707 238.348H83.0156ZM76.6562 235.265C76.6562 234.327 76.9714 233.521 77.6016 232.848C78.2031 232.16 78.9515 231.809 79.8467 231.795C80.4626 231.795 80.9782 231.881 81.3936 232.053C81.7874 232.246 82.1097 232.511 82.3604 232.848C82.6253 233.156 82.8151 233.521 82.9297 233.943C83.0443 234.359 83.1087 234.799 83.123 235.265H76.6562ZM89.2998 235.426V230.366H87.3447V242H89.2998V237.596L90.9541 236.06L94.7139 242H97.0449L92.3398 234.695L96.7871 230.366H94.2949L89.2998 235.426ZM97.582 230.366V231.988H101.417V242H103.372V231.988H107.196V230.366H97.582ZM110.87 230.366H108.915V242H110.967L116.66 233.288H116.703V242H118.658V230.366H116.617L110.913 239.078H110.87V230.366ZM126.672 231.795C127.381 231.795 127.939 231.956 128.348 232.278C128.756 232.601 129.057 233.012 129.25 233.514C129.443 234.008 129.569 234.534 129.626 235.093C129.669 235.666 129.69 236.199 129.69 236.693C129.69 237.46 129.594 238.093 129.4 238.595C129.2 239.103 128.938 239.511 128.616 239.819C128.308 240.099 127.975 240.306 127.617 240.442C127.266 240.571 126.93 240.636 126.607 240.636C125.555 240.621 124.778 240.181 124.276 239.315C123.746 238.491 123.481 237.435 123.481 236.146C123.481 235.737 123.514 235.29 123.578 234.803C123.635 234.309 123.757 233.832 123.943 233.374C124.165 232.923 124.488 232.551 124.91 232.257C125.354 231.963 125.941 231.809 126.672 231.795ZM121.526 246.598H123.481V240.636C123.761 241.108 124.165 241.506 124.695 241.828C125.225 242.15 125.87 242.319 126.629 242.333C127.61 242.319 128.441 242.104 129.121 241.689C129.78 241.28 130.292 240.754 130.657 240.109C131.359 238.742 131.703 237.32 131.688 235.845C131.688 234.155 131.28 232.769 130.464 231.688C129.626 230.599 128.43 230.048 126.876 230.033C125.895 230.048 125.139 230.252 124.609 230.646C124.344 230.825 124.115 231.032 123.922 231.269C123.721 231.512 123.532 231.759 123.353 232.01V230.366H121.526V246.598ZM133.289 236.167C133.275 237.735 133.715 239.135 134.61 240.367C135.484 241.635 136.838 242.29 138.671 242.333C140.54 242.29 141.904 241.635 142.764 240.367C143.63 239.135 144.063 237.735 144.063 236.167C144.063 234.599 143.63 233.199 142.764 231.967C141.904 230.706 140.54 230.062 138.671 230.033C136.838 230.062 135.484 230.706 134.61 231.967C133.715 233.199 133.275 234.599 133.289 236.167ZM135.287 236.167C135.287 235.759 135.337 235.297 135.438 234.781C135.545 234.287 135.717 233.804 135.953 233.331C136.197 232.866 136.548 232.486 137.006 232.192C137.443 231.899 137.998 231.745 138.671 231.731C139.38 231.745 139.96 231.899 140.411 232.192C140.869 232.486 141.213 232.866 141.442 233.331C141.679 233.804 141.851 234.287 141.958 234.781C142.03 235.297 142.065 235.759 142.065 236.167C142.065 236.554 142.03 236.994 141.958 237.488C141.851 238.004 141.679 238.502 141.442 238.982C141.213 239.454 140.869 239.837 140.411 240.131C139.96 240.468 139.38 240.636 138.671 240.636C137.998 240.636 137.443 240.468 137.006 240.131C136.548 239.837 136.197 239.454 135.953 238.982C135.717 238.502 135.545 238.004 135.438 237.488C135.337 236.994 135.287 236.554 135.287 236.167ZM148.253 231.988H151.143C151.988 231.988 152.589 232.107 152.947 232.343C153.27 232.593 153.431 232.952 153.431 233.417C153.431 234.047 153.262 234.495 152.926 234.76C152.553 235.039 151.945 235.179 151.1 235.179H148.253V231.988ZM148.253 236.726H151.562C153.23 236.726 154.079 237.342 154.107 238.573C154.093 239.805 153.309 240.403 151.755 240.367H148.253V236.726ZM146.298 242H151.798C154.627 241.957 156.048 240.929 156.062 238.917C156.062 238.409 155.991 237.968 155.848 237.596C155.683 237.245 155.468 236.955 155.203 236.726C154.96 236.475 154.684 236.274 154.376 236.124C154.068 235.995 153.753 235.902 153.431 235.845C153.953 235.68 154.415 235.394 154.816 234.985C155.182 234.556 155.371 234.004 155.386 233.331C155.386 232.493 155.078 231.791 154.462 231.226C153.832 230.667 152.872 230.381 151.583 230.366H146.298V242ZM160.241 230.366H158.286V242H173.443V245.405H175.227V240.367H173.927V230.366H171.972V240.367H167.084V230.366H165.129V240.367H160.241V230.366ZM179.19 230.366H177.235V242H179.287L184.98 233.288H185.023V242H186.979V230.366H184.938L179.233 239.078H179.19V230.366ZM191.802 235.426V230.366H189.847V242H191.802V237.596L193.456 236.06L197.216 242H199.547L194.842 234.695L199.289 230.366H196.797L191.802 235.426Z" fill="#1D252F"/>
<path d="M7.95996 254.359H6.44531C6.15169 255.591 5.69694 256.383 5.08105 256.733C4.45085 257.099 3.50553 257.303 2.24512 257.346V258.914H5.87598V270H7.95996V254.359ZM15.6514 260.912L16.3174 256.626H22.9346V254.714H14.835L13.6748 263.093L15.3721 263.179C16.1169 262.212 17.0765 261.721 18.251 261.707C19.2464 261.707 20.0664 261.994 20.7109 262.566C21.3555 263.168 21.6849 264.031 21.6992 265.155C21.6849 266.158 21.3984 266.989 20.8398 267.648C20.2598 268.349 19.4541 268.707 18.4229 268.722C17.5277 268.722 16.7865 268.51 16.1992 268.088C15.612 267.673 15.2539 267.021 15.125 266.133H13.1055C13.2201 266.978 13.4456 267.68 13.7822 268.238C14.1188 268.797 14.5306 269.237 15.0176 269.56C15.4974 269.868 16.0166 270.086 16.5752 270.215C17.1051 270.351 17.6279 270.419 18.1436 270.419C19.361 270.405 20.3493 270.193 21.1084 269.785C21.8675 269.384 22.4404 268.89 22.8271 268.303C23.2067 267.716 23.4681 267.114 23.6113 266.498C23.7331 265.882 23.7939 265.363 23.7939 264.94C23.7653 263.329 23.2282 262.09 22.1826 261.224C21.1729 260.371 20.002 259.945 18.6699 259.945C17.9753 259.945 17.388 260.042 16.9082 260.235C16.4069 260.407 15.988 260.633 15.6514 260.912ZM25.6094 258.323C25.6237 259.405 26.0033 260.296 26.748 260.998C27.4714 261.736 28.3594 262.112 29.4121 262.126C30.5007 262.112 31.3958 261.729 32.0977 260.977C32.7995 260.26 33.1576 259.376 33.1719 258.323C33.1576 257.235 32.7923 256.34 32.0762 255.638C31.3743 254.929 30.4863 254.567 29.4121 254.553C28.3594 254.567 27.4714 254.929 26.748 255.638C26.0033 256.34 25.6237 257.235 25.6094 258.323ZM27.167 258.323C27.167 257.707 27.389 257.185 27.833 256.755C28.2412 256.347 28.7676 256.135 29.4121 256.121C30.0423 256.135 30.5723 256.347 31.002 256.755C31.4102 257.17 31.6214 257.693 31.6357 258.323C31.6214 258.954 31.4102 259.473 31.002 259.881C30.5866 260.332 30.0495 260.558 29.3906 260.558C28.7747 260.558 28.2627 260.354 27.8545 259.945C27.3962 259.551 27.167 259.011 27.167 258.323ZM36.0615 266.369C36.0758 267.458 36.4554 268.353 37.2002 269.055C37.9163 269.785 38.8044 270.158 39.8643 270.172C40.9456 270.158 41.8408 269.778 42.5498 269.033C43.2516 268.317 43.6097 267.429 43.624 266.369C43.6097 265.288 43.2445 264.393 42.5283 263.684C41.8193 262.982 40.9313 262.624 39.8643 262.609C38.8044 262.624 37.9163 262.982 37.2002 263.684C36.4554 264.393 36.0758 265.288 36.0615 266.369ZM37.6191 266.369C37.6191 265.753 37.8376 265.234 38.2744 264.812C38.6898 264.396 39.2197 264.181 39.8643 264.167C40.4945 264.181 41.0208 264.396 41.4434 264.812C41.8587 265.22 42.0736 265.739 42.0879 266.369C42.0736 266.999 41.8587 267.522 41.4434 267.938C41.0352 268.389 40.5016 268.614 39.8428 268.614C39.2269 268.614 38.7113 268.41 38.2959 268.002C37.8447 267.601 37.6191 267.057 37.6191 266.369ZM39.5957 254.381H38.3926L29.6162 270.44H30.7979L39.5957 254.381Z" fill="#AF03B2"/>
<path d="M96.5811 97.3379L98.1602 102H100.523L94.7549 86.0264H92.3164L86.3115 102H88.5352L90.2002 97.3379H96.5811ZM90.8662 95.4473L93.4121 88.4004H93.4551L95.8076 95.4473H90.8662ZM104.208 90.3662H102.253V102H104.208V96.6719H109.644V102H111.599V90.3662H109.644V95.0498H104.208V90.3662ZM116.218 93.9004C116.246 93.4206 116.429 92.93 116.766 92.4287C116.945 92.2067 117.21 92.017 117.561 91.8594C117.883 91.7305 118.316 91.666 118.86 91.666C120.679 91.666 121.582 92.2891 121.567 93.5352C121.567 93.8288 121.542 94.0616 121.492 94.2334C121.435 94.4268 121.295 94.5879 121.073 94.7168C120.694 94.9388 119.763 95.1071 118.28 95.2217C117.271 95.3005 116.472 95.4616 115.885 95.7051C115.283 95.9701 114.836 96.2923 114.542 96.6719C114.248 97.03 114.059 97.4131 113.973 97.8213C113.872 98.2152 113.829 98.5948 113.844 98.96C113.844 99.9912 114.188 100.8 114.875 101.388C115.534 102.004 116.4 102.319 117.475 102.333C118.04 102.319 118.552 102.244 119.011 102.107C119.448 101.993 119.827 101.846 120.149 101.667C120.801 101.273 121.31 100.865 121.675 100.442C121.689 100.894 121.836 101.295 122.115 101.646C122.38 102.011 122.921 102.201 123.737 102.215C123.959 102.201 124.16 102.172 124.339 102.129C124.496 102.086 124.65 102.043 124.801 102V100.571C124.564 100.629 124.35 100.657 124.156 100.657C123.734 100.657 123.522 100.417 123.522 99.9375V93.2881C123.508 92.5433 123.333 91.9489 122.996 91.5049C122.638 91.0681 122.212 90.7458 121.718 90.5381C121.216 90.3161 120.74 90.1693 120.289 90.0977C119.831 90.0547 119.469 90.0332 119.204 90.0332C117.757 90.0332 116.608 90.3269 115.756 90.9141C114.861 91.5157 114.413 92.5111 114.413 93.9004H116.218ZM121.567 97.9717C121.546 98.7666 121.177 99.4112 120.461 99.9053C119.773 100.421 118.946 100.686 117.979 100.7C116.54 100.686 115.827 100.006 115.842 98.6592C115.842 98.2725 115.938 97.9645 116.132 97.7354C116.289 97.5134 116.493 97.3379 116.744 97.209C117.009 97.0729 117.288 96.9763 117.582 96.919C117.847 96.8474 118.105 96.8044 118.355 96.7901C119.523 96.6254 120.321 96.4929 120.751 96.3926C121.174 96.2709 121.446 96.1599 121.567 96.0596V97.9717ZM128.002 90.3662V96.6289C128.002 98.2761 127.891 99.3467 127.669 99.8409C127.569 100.106 127.415 100.281 127.207 100.367C127.014 100.475 126.77 100.528 126.477 100.528C126.126 100.528 125.864 100.514 125.692 100.485V102C126 102.1 126.416 102.158 126.938 102.172C127.877 102.172 128.618 101.792 129.162 101.033C129.678 100.281 129.943 99.0352 129.957 97.295V91.9883H134.555V102H136.51V90.3662H128.002ZM141.333 90.3662H139.378V102H141.43L147.123 93.2881H147.166V102H149.121V90.3662H147.08L141.376 99.0782H141.333V90.3662ZM150.689 90.3662V91.9883H154.524V102H156.479V91.9883H160.304V90.3662H150.689ZM163.978 90.3662H162.022V102H164.074L169.768 93.2881H169.811V102H171.766V90.3662H169.725L164.021 99.0782H163.978V90.3662ZM176.589 95.4258V90.3662H174.634V102H176.589V97.5957L178.243 96.0596L182.003 102H184.334L179.629 94.6953L184.076 90.3662H181.584L176.589 95.4258Z" fill="#1D252F"/>
<path d="M93.96 114.359H92.4453C92.1517 115.591 91.6969 116.383 91.0811 116.733C90.4508 117.099 89.5055 117.303 88.2451 117.346V118.914H91.876V130H93.96V114.359ZM107.817 122.384C107.817 124.353 107.56 125.886 107.044 126.981C106.5 128.099 105.669 128.657 104.552 128.657C103.442 128.657 102.622 128.099 102.092 126.981C101.562 125.886 101.297 124.353 101.297 122.384C101.297 120.407 101.562 118.868 102.092 117.765C102.622 116.683 103.442 116.135 104.552 116.121C105.669 116.135 106.5 116.683 107.044 117.765C107.56 118.868 107.817 120.407 107.817 122.384ZM109.901 122.384C109.901 121.553 109.844 120.676 109.729 119.752C109.579 118.828 109.314 117.962 108.935 117.152C108.555 116.314 108.011 115.641 107.302 115.133C106.586 114.632 105.669 114.374 104.552 114.359C103.442 114.374 102.543 114.632 101.855 115.133C101.161 115.641 100.617 116.314 100.223 117.152C99.8431 117.962 99.5781 118.828 99.4277 119.752C99.2845 120.676 99.2129 121.553 99.2129 122.384C99.2129 123.193 99.2845 124.06 99.4277 124.983C99.5781 125.893 99.8431 126.767 100.223 127.605C100.617 128.407 101.161 129.073 101.855 129.603C102.543 130.133 103.442 130.405 104.552 130.419C105.669 130.405 106.586 130.133 107.302 129.603C108.011 129.073 108.555 128.407 108.935 127.605C109.314 126.767 109.579 125.893 109.729 124.983C109.844 124.06 109.901 123.193 109.901 122.384ZM111.609 118.323C111.624 119.405 112.003 120.296 112.748 120.998C113.471 121.736 114.359 122.112 115.412 122.126C116.501 122.112 117.396 121.729 118.098 120.977C118.799 120.26 119.158 119.376 119.172 118.323C119.158 117.235 118.792 116.34 118.076 115.638C117.374 114.929 116.486 114.567 115.412 114.553C114.359 114.567 113.471 114.929 112.748 115.638C112.003 116.34 111.624 117.235 111.609 118.323ZM113.167 118.323C113.167 117.707 113.389 117.185 113.833 116.755C114.241 116.347 114.768 116.135 115.412 116.121C116.042 116.135 116.572 116.347 117.002 116.755C117.41 117.17 117.621 117.693 117.636 118.323C117.621 118.953 117.41 119.473 117.002 119.881C116.587 120.332 116.049 120.558 115.391 120.558C114.775 120.558 114.263 120.354 113.854 119.945C113.396 119.551 113.167 119.011 113.167 118.323ZM122.062 126.369C122.076 127.458 122.455 128.353 123.2 129.055C123.916 129.785 124.804 130.158 125.864 130.172C126.946 130.158 127.841 129.778 128.55 129.033C129.252 128.317 129.61 127.429 129.624 126.369C129.61 125.288 129.244 124.393 128.528 123.684C127.819 122.982 126.931 122.624 125.864 122.609C124.804 122.624 123.916 122.982 123.2 123.684C122.455 124.393 122.076 125.288 122.062 126.369ZM123.619 126.369C123.619 125.753 123.838 125.234 124.274 124.812C124.69 124.396 125.22 124.181 125.864 124.167C126.494 124.181 127.021 124.396 127.443 124.812C127.859 125.22 128.074 125.739 128.088 126.369C128.074 126.999 127.859 127.522 127.443 127.938C127.035 128.389 126.502 128.614 125.843 128.614C125.227 128.614 124.711 128.41 124.296 128.002C123.845 127.601 123.619 127.057 123.619 126.369ZM125.596 114.381H124.393L115.616 130.44H116.798L125.596 114.381Z" fill="#9097DA"/>
<path d="M22.7812 20.0264H20.6328V36.0001H22.7812V28.545H31.1172V36.0001H33.2764V20.0264H31.1172V26.6329H22.7812V20.0264ZM44.1582 32.3477C44.1439 32.8061 43.8789 33.2894 43.3633 33.7979C43.1055 34.0199 42.7904 34.2097 42.418 34.3672C42.0527 34.5463 41.6374 34.6358 41.1719 34.6358C38.9232 34.6072 37.7988 33.3396 37.7988 30.8331H46.2744C46.2744 28.7348 45.8626 27.084 45.0391 25.8809C44.2012 24.6635 42.9479 24.0476 41.2793 24.0333C39.3743 24.0619 37.9743 24.6778 37.0791 25.8809C36.1696 27.084 35.7148 28.6238 35.7148 30.5001C35.7148 32.2045 36.1768 33.5902 37.1006 34.6573C37.9958 35.7602 39.2562 36.3187 40.8818 36.3331C41.7913 36.3187 42.5612 36.1863 43.1914 35.9356C43.8073 35.6993 44.3122 35.3913 44.7061 35.0118C45.1071 34.6179 45.415 34.1846 45.6299 33.712C45.7516 33.4613 45.8555 33.225 45.9414 33.003C46.013 32.7881 46.0703 32.5697 46.1133 32.3477H44.1582ZM37.7988 29.2647C37.7988 28.3266 38.1139 27.5209 38.7441 26.8477C39.3457 26.1602 40.0941 25.8093 40.9893 25.795C41.6051 25.795 42.1208 25.8809 42.5361 26.0528C42.93 26.2462 43.2523 26.5111 43.5029 26.8477C43.7679 27.1557 43.9577 27.5209 44.0723 27.9434C44.1868 28.3588 44.2513 28.7992 44.2656 29.2647H37.7988ZM50.2275 27.9005C50.2562 27.4206 50.4388 26.9301 50.7754 26.4288C50.9544 26.2068 51.2194 26.017 51.5703 25.8594C51.8926 25.7305 52.3258 25.6661 52.8701 25.6661C54.6891 25.6661 55.5915 26.2891 55.5771 27.5352C55.5771 27.8288 55.5521 28.0616 55.502 28.2335C55.4447 28.4268 55.305 28.588 55.083 28.7169C54.7035 28.9389 53.7725 29.1072 52.29 29.2217C51.2803 29.3005 50.4818 29.4616 49.8945 29.7051C49.293 29.9701 48.8454 30.2924 48.5518 30.6719C48.2581 31.03 48.0684 31.4131 47.9824 31.8214C47.8822 32.2152 47.8392 32.5948 47.8535 32.96C47.8535 33.9913 48.1973 34.8005 48.8848 35.3878C49.5436 36.0036 50.4102 36.3187 51.4844 36.3331C52.0501 36.3187 52.5622 36.2436 53.0205 36.1075C53.4574 35.9929 53.8369 35.8461 54.1592 35.6671C54.8109 35.2732 55.3193 34.865 55.6846 34.4424C55.6989 34.8936 55.8457 35.2947 56.125 35.6456C56.39 36.0108 56.9307 36.2006 57.7471 36.2149C57.9691 36.2006 58.1696 36.1719 58.3486 36.129C58.5062 36.086 58.6602 36.043 58.8105 36.0001V34.5714C58.5742 34.6286 58.3594 34.6573 58.166 34.6573C57.7435 34.6573 57.5322 34.4174 57.5322 33.9376V27.2881C57.5179 26.5434 57.3424 25.949 57.0059 25.5049C56.6478 25.0681 56.2217 24.7458 55.7275 24.5381C55.2262 24.3161 54.75 24.1693 54.2988 24.0977C53.8405 24.0547 53.4788 24.0333 53.2139 24.0333C51.7673 24.0333 50.6178 24.3269 49.7656 24.9141C48.8704 25.5157 48.4229 26.5111 48.4229 27.9005H50.2275ZM55.5771 31.9717C55.5557 32.7667 55.1868 33.4112 54.4707 33.9053C53.7832 34.421 52.9561 34.6859 51.9893 34.7003C50.5498 34.6859 49.8372 34.0056 49.8516 32.6592C49.8516 32.2725 49.9482 31.9646 50.1416 31.7354C50.2992 31.5134 50.5033 31.338 50.7539 31.209C51.0189 31.073 51.2982 30.9763 51.5918 30.919C51.8568 30.8474 52.1146 30.8044 52.3652 30.7901C53.5326 30.6254 54.3311 30.4929 54.7607 30.3926C55.1833 30.2709 55.4554 30.1599 55.5771 30.0596V31.9717ZM70.3691 20.0264H68.4141V26.0098C68.1491 25.5587 67.7445 25.1182 67.2002 24.6885C66.9352 24.488 66.613 24.3269 66.2334 24.2051C65.8682 24.0906 65.4277 24.0333 64.9121 24.0333C63.3724 24.0619 62.2051 24.6205 61.4102 25.709C60.6081 26.7904 60.207 28.1762 60.207 29.8663C60.207 30.5538 60.2858 31.2699 60.4434 32.0147C60.5938 32.781 60.8516 33.4864 61.2168 34.1309C61.582 34.7755 62.0941 35.2947 62.7529 35.6885C63.3831 36.1039 64.1924 36.3187 65.1807 36.3331C65.7607 36.3331 66.3516 36.2077 66.9531 35.9571C67.5404 35.6921 68.0488 35.1729 68.4785 34.3995H68.5215V36.0001H70.3691V20.0264ZM65.3955 25.795C66.0973 25.795 66.6559 25.9561 67.0713 26.2784C67.4795 26.6006 67.7803 27.0124 67.9736 27.5137C68.1598 28.0079 68.2816 28.5342 68.3389 29.0928C68.389 29.6658 68.4141 30.1993 68.4141 30.6934C68.4141 31.4597 68.3174 32.0935 68.124 32.5948C67.9163 33.1033 67.6514 33.5115 67.3291 33.8194C67.0212 34.0987 66.6917 34.3064 66.3408 34.4424C65.9899 34.5714 65.6533 34.6358 65.3311 34.6358C64.2712 34.6215 63.4941 34.1811 63 33.3145C62.4701 32.4909 62.2051 31.4346 62.2051 30.1456C62.2051 29.7374 62.2337 29.2898 62.291 28.8028C62.3483 28.3087 62.4736 27.8324 62.667 27.3741C62.889 26.9229 63.2113 26.5505 63.6338 26.2569C64.0778 25.9633 64.665 25.8093 65.3955 25.795ZM78.7695 30.1671C78.7552 31.7354 79.1956 33.1355 80.0908 34.3672C80.9645 35.6348 82.318 36.2901 84.1514 36.3331C86.0205 36.2901 87.3848 35.6348 88.2441 34.3672C89.1107 33.1355 89.5439 31.7354 89.5439 30.1671C89.5439 28.5987 89.1107 27.1986 88.2441 25.9669C87.3848 24.7064 86.0205 24.0619 84.1514 24.0333C82.318 24.0619 80.9645 24.7064 80.0908 25.9669C79.1956 27.1986 78.7552 28.5987 78.7695 30.1671ZM80.7676 30.1671C80.7676 29.7589 80.8177 29.2969 80.918 28.7813C81.0254 28.2872 81.1973 27.8038 81.4336 27.3311C81.6771 26.8656 82.028 26.4861 82.4863 26.1924C82.9232 25.8988 83.4782 25.7449 84.1514 25.7305C84.8604 25.7449 85.4404 25.8988 85.8916 26.1924C86.3499 26.4861 86.6937 26.8656 86.9229 27.3311C87.1592 27.8038 87.3311 28.2872 87.4385 28.7813C87.5101 29.2969 87.5459 29.7589 87.5459 30.1671C87.5459 30.5538 87.5101 30.9942 87.4385 31.4883C87.3311 32.004 87.1592 32.5017 86.9229 32.9815C86.6937 33.4542 86.3499 33.8373 85.8916 34.1309C85.4404 34.4675 84.8604 34.6358 84.1514 34.6358C83.4782 34.6358 82.9232 34.4675 82.4863 34.1309C82.028 33.8373 81.6771 33.4542 81.4336 32.9815C81.1973 32.5017 81.0254 32.004 80.918 31.4883C80.8177 30.9942 80.7676 30.5538 80.7676 30.1671ZM96.1611 19.919C95.8962 19.8474 95.6025 19.8116 95.2803 19.8116C93.2822 19.7973 92.276 20.6531 92.2617 22.379V24.3663H90.6826V25.9883H92.2617V36.0001H94.2168V25.9883H96.1826V24.3663H94.2168V22.9376C94.2025 22.0281 94.5928 21.5733 95.3877 21.5733C95.6527 21.5733 95.9105 21.5876 96.1611 21.6163V19.919ZM114.734 20.0264V30.1456C114.706 31.8357 114.265 32.9958 113.413 33.626C113.227 33.7693 113.023 33.9018 112.801 34.0235C112.564 34.1524 112.321 34.2455 112.07 34.3028C111.59 34.4532 111.093 34.5284 110.577 34.5284C110.097 34.5284 109.621 34.4532 109.148 34.3028C108.661 34.1596 108.221 33.9268 107.827 33.6046C107.433 33.2536 107.118 32.7989 106.882 32.2403C106.617 31.6674 106.484 30.9548 106.484 30.1026V20.0264H104.336V30.6934C104.314 32.2188 104.805 33.5401 105.808 34.6573C106.789 35.8031 108.343 36.3904 110.47 36.419C112.668 36.3904 114.287 35.7888 115.325 34.6143C116.371 33.4685 116.894 32.0613 116.894 30.3926V20.0264H114.734ZM127.313 27.8145L132.663 20.0264H130.085L126.035 26.1495L121.996 20.0264H119.289L124.628 27.8145L118.935 36.0001H121.534L125.949 29.4473L130.246 36.0001H132.899L127.313 27.8145ZM139.871 19.6075H138.399L132.921 36.419H134.414L139.871 19.6075ZM141.117 36.0001H147.487C148.798 36.0001 149.901 35.7279 150.796 35.1837C151.67 34.6895 152.364 34.0378 152.88 33.2286C153.41 32.3907 153.779 31.4955 153.986 30.543C154.187 29.6049 154.287 28.6882 154.287 27.793C154.273 25.4441 153.678 23.5749 152.504 22.1856C151.337 20.7605 149.697 20.0408 147.584 20.0264H141.117V36.0001ZM143.266 21.8741H147.294C150.402 21.8741 151.992 23.89 152.063 27.9219C151.992 32.0469 150.452 34.1238 147.444 34.1524H143.266V21.8741ZM164.514 32.3477C164.499 32.8061 164.234 33.2894 163.719 33.7979C163.461 34.0199 163.146 34.2097 162.773 34.3672C162.408 34.5463 161.993 34.6358 161.527 34.6358C159.279 34.6072 158.154 33.3396 158.154 30.8331H166.63C166.63 28.7348 166.218 27.084 165.395 25.8809C164.557 24.6635 163.303 24.0476 161.635 24.0333C159.73 24.0619 158.33 24.6778 157.435 25.8809C156.525 27.084 156.07 28.6238 156.07 30.5001C156.07 32.2045 156.532 33.5902 157.456 34.6573C158.351 35.7602 159.612 36.3187 161.237 36.3331C162.147 36.3187 162.917 36.1863 163.547 35.9356C164.163 35.6993 164.668 35.3913 165.062 35.0118C165.463 34.6179 165.771 34.1846 165.985 33.712C166.107 33.4613 166.211 33.225 166.297 33.003C166.368 32.7881 166.426 32.5697 166.469 32.3477H164.514ZM158.154 29.2647C158.154 28.3266 158.469 27.5209 159.1 26.8477C159.701 26.1602 160.45 25.8093 161.345 25.795C161.961 25.795 162.476 25.8809 162.892 26.0528C163.285 26.2462 163.608 26.5111 163.858 26.8477C164.123 27.1557 164.313 27.5209 164.428 27.9434C164.542 28.3588 164.607 28.7992 164.621 29.2647H158.154ZM177.34 27.6856C177.354 27.5066 177.322 27.2273 177.243 26.8477C177.172 26.4825 176.982 26.0779 176.674 25.6339C176.395 25.197 175.954 24.8174 175.353 24.4952C174.751 24.2016 173.931 24.0476 172.893 24.0333C171.704 24.0333 170.683 24.334 169.831 24.9356C168.95 25.5372 168.503 26.4753 168.488 27.7501C168.488 29.4402 169.745 30.4678 172.259 30.8331C173.634 31.0837 174.572 31.363 175.073 31.671C175.338 31.8142 175.521 31.9753 175.621 32.1544C175.707 32.3406 175.75 32.5518 175.75 32.7881C175.736 33.447 175.471 33.9161 174.955 34.1954C174.432 34.489 173.809 34.6358 173.086 34.6358C172.413 34.6358 171.872 34.5463 171.464 34.3672C171.049 34.2097 170.733 34.0056 170.519 33.7549C170.325 33.5043 170.193 33.2393 170.121 32.96C170.049 32.7022 170.014 32.4695 170.014 32.2618H168.123C168.137 32.6127 168.202 33.0137 168.316 33.4649C168.417 33.9376 168.621 34.3852 168.929 34.8077C169.251 35.2374 169.752 35.5919 170.433 35.8712C171.091 36.1648 171.983 36.3187 173.107 36.3331C174.461 36.3187 175.564 35.9714 176.416 35.2911C177.261 34.6179 177.691 33.6797 177.705 32.4766C177.705 32.0827 177.655 31.7175 177.555 31.3809C177.426 31.073 177.207 30.7865 176.899 30.5215C176.298 30.0059 175.159 29.5583 173.483 29.1788C172.28 28.8852 171.46 28.6202 171.023 28.3839C170.579 28.169 170.365 27.8324 170.379 27.3741C170.379 27.0089 170.476 26.7081 170.669 26.4717C170.862 26.2569 171.084 26.0958 171.335 25.9883C171.593 25.8881 171.847 25.8165 172.098 25.7735C172.348 25.7449 172.545 25.7305 172.688 25.7305C173.326 25.7305 173.827 25.795 174.192 25.9239C174.558 26.06 174.83 26.2283 175.009 26.4288C175.195 26.6365 175.317 26.8441 175.374 27.0518C175.417 27.2667 175.438 27.4779 175.438 27.6856H177.34ZM181.905 24.3663H179.95V36.0001H181.905V24.3663ZM181.905 22.2501V20.0264H179.95V22.2501H181.905ZM189.317 25.795C190.019 25.795 190.578 25.9561 190.993 26.2784C191.401 26.6006 191.702 27.0124 191.896 27.5137C192.082 28.0079 192.203 28.5342 192.261 29.0928C192.311 29.6658 192.336 30.1993 192.336 30.6934C192.336 31.4597 192.239 32.0935 192.046 32.5948C191.838 33.1033 191.573 33.5115 191.251 33.8194C190.943 34.0987 190.614 34.3064 190.263 34.4424C189.912 34.5714 189.575 34.6358 189.253 34.6358C188.193 34.6215 187.416 34.1811 186.922 33.3145C186.392 32.4909 186.127 31.4346 186.127 30.1456C186.127 29.7374 186.156 29.2898 186.213 28.8028C186.27 28.3087 186.396 27.8324 186.589 27.3741C186.811 26.9229 187.133 26.5505 187.556 26.2569C188 25.9633 188.587 25.8093 189.317 25.795ZM192.465 24.3663V26.0098C192.329 25.795 192.168 25.5622 191.981 25.3116C191.788 25.0896 191.545 24.8747 191.251 24.6671C190.728 24.2589 189.965 24.0476 188.963 24.0333C187.409 24.0476 186.22 24.599 185.396 25.6876C184.551 26.7546 184.129 28.1404 184.129 29.8448C184.129 30.5323 184.215 31.2484 184.387 31.9932C184.537 32.7595 184.809 33.4649 185.203 34.1094C185.597 34.754 186.116 35.2803 186.761 35.6885C187.427 36.1039 188.236 36.3187 189.188 36.3331C189.976 36.3187 190.635 36.1505 191.165 35.8282C191.681 35.5202 192.071 35.1371 192.336 34.6788C192.336 35.1944 192.318 35.7172 192.282 36.2471C192.225 36.7699 192.096 37.2605 191.896 37.7188C191.702 38.1557 191.38 38.5137 190.929 38.793C190.47 39.0866 189.837 39.2406 189.027 39.2549C188.748 39.2693 188.3 39.1654 187.685 38.9434C187.427 38.8145 187.18 38.6247 186.943 38.3741C186.693 38.1378 186.517 37.8155 186.417 37.4073H184.451C184.573 38.1736 184.802 38.7823 185.139 39.2335C185.475 39.6918 185.862 40.0427 186.299 40.2862C186.757 40.5225 187.219 40.6765 187.685 40.7481C188.143 40.8412 188.54 40.8878 188.877 40.8878C190.209 40.8734 191.251 40.6371 192.003 40.1788C192.762 39.7419 193.296 39.2084 193.604 38.5782C193.94 37.9122 194.148 37.2641 194.227 36.6339C194.27 36.0036 194.291 35.4701 194.291 35.0333V24.3663H192.465ZM197.159 24.3663V36.0001H199.114V29.6622C199.114 28.8744 199.232 28.2227 199.469 27.7071C199.676 27.2058 199.941 26.8155 200.264 26.5362C200.586 26.2426 200.915 26.0456 201.252 25.9454C201.589 25.8451 201.896 25.795 202.176 25.795C203.128 25.795 203.787 26.0421 204.152 26.5362C204.489 27.0518 204.657 27.8145 204.657 28.8243V36.0001H206.623V28.0831C206.623 27.2595 206.505 26.5756 206.269 26.0313C206.018 25.5085 205.688 25.1003 205.28 24.8067C204.879 24.4988 204.446 24.2911 203.98 24.1837C203.493 24.0834 203.017 24.0333 202.552 24.0333C201.571 24.0619 200.794 24.3126 200.221 24.7852C199.941 24.9857 199.705 25.197 199.512 25.419C199.326 25.6553 199.172 25.8523 199.05 26.0098H198.985V24.3663H197.159Z" fill="#1D252F"/>
<path d="M26.96 48.3594H25.4453C25.1517 49.5912 24.6969 50.3825 24.0811 50.7335C23.4508 51.0987 22.5055 51.3028 21.2451 51.3458V52.9141H24.876V64.0001H26.96V48.3594ZM40.8174 56.3839C40.8174 58.3533 40.5596 59.8858 40.0439 60.9815C39.4997 62.0987 38.6689 62.6573 37.5518 62.6573C36.4417 62.6573 35.6217 62.0987 35.0918 60.9815C34.5618 59.8858 34.2969 58.3533 34.2969 56.3839C34.2969 54.4073 34.5618 52.8676 35.0918 51.7647C35.6217 50.6833 36.4417 50.1355 37.5518 50.1212C38.6689 50.1355 39.4997 50.6833 40.0439 51.7647C40.5596 52.8676 40.8174 54.4073 40.8174 56.3839ZM42.9014 56.3839C42.9014 55.5531 42.8441 54.6758 42.7295 53.752C42.5791 52.8282 42.3141 51.9616 41.9346 51.1524C41.555 50.3145 41.0107 49.6413 40.3018 49.1329C39.5856 48.6316 38.6689 48.3738 37.5518 48.3594C36.4417 48.3738 35.543 48.6316 34.8555 49.1329C34.1608 49.6413 33.6165 50.3145 33.2227 51.1524C32.8431 51.9616 32.5781 52.8282 32.4277 53.752C32.2845 54.6758 32.2129 55.5531 32.2129 56.3839C32.2129 57.1931 32.2845 58.0596 32.4277 58.9835C32.5781 59.893 32.8431 60.7667 33.2227 61.6046C33.6165 62.4066 34.1608 63.0727 34.8555 63.6026C35.543 64.1325 36.4417 64.4047 37.5518 64.419C38.6689 64.4047 39.5856 64.1325 40.3018 63.6026C41.0107 63.0727 41.555 62.4066 41.9346 61.6046C42.3141 60.7667 42.5791 59.893 42.7295 58.9835C42.8441 58.0596 42.9014 57.1931 42.9014 56.3839ZM44.6094 52.3233C44.6237 53.4047 45.0033 54.2963 45.748 54.9981C46.4714 55.7357 47.3594 56.1117 48.4121 56.126C49.5007 56.1117 50.3958 55.7286 51.0977 54.9766C51.7995 54.2605 52.1576 53.376 52.1719 52.3233C52.1576 51.2348 51.7923 50.3396 51.0762 49.6378C50.3743 48.9288 49.4863 48.5671 48.4121 48.5528C47.3594 48.5671 46.4714 48.9288 45.748 49.6378C45.0033 50.3396 44.6237 51.2348 44.6094 52.3233ZM46.167 52.3233C46.167 51.7074 46.389 51.1846 46.833 50.7549C47.2412 50.3467 47.7676 50.1355 48.4121 50.1212C49.0423 50.1355 49.5723 50.3467 50.002 50.7549C50.4102 51.1703 50.6214 51.6931 50.6357 52.3233C50.6214 52.9535 50.4102 53.4727 50.002 53.8809C49.5866 54.3321 49.0495 54.5577 48.3906 54.5577C47.7747 54.5577 47.2627 54.3536 46.8545 53.9454C46.3962 53.5515 46.167 53.0108 46.167 52.3233ZM55.0615 60.3692C55.0758 61.4577 55.4554 62.3529 56.2002 63.0547C56.9163 63.7852 57.8044 64.1576 58.8643 64.1719C59.9456 64.1576 60.8408 63.7781 61.5498 63.0333C62.2516 62.3171 62.6097 61.4291 62.624 60.3692C62.6097 59.2878 62.2445 58.3926 61.5283 57.6837C60.8193 56.9818 59.9313 56.6238 58.8643 56.6094C57.8044 56.6238 56.9163 56.9818 56.2002 57.6837C55.4554 58.3926 55.0758 59.2878 55.0615 60.3692ZM56.6191 60.3692C56.6191 59.7533 56.8376 59.2341 57.2744 58.8116C57.6898 58.3962 58.2197 58.1814 58.8643 58.1671C59.4945 58.1814 60.0208 58.3962 60.4434 58.8116C60.8587 59.2198 61.0736 59.739 61.0879 60.3692C61.0736 60.9994 60.8587 61.5222 60.4434 61.9376C60.0352 62.3887 59.5016 62.6143 58.8428 62.6143C58.2269 62.6143 57.7113 62.4102 57.2959 62.002C56.8447 61.601 56.6191 61.0567 56.6191 60.3692ZM58.5957 48.3809H57.3926L48.6162 64.4405H49.7979L58.5957 48.3809Z" fill="#327795"/>
<path d="M595.586 91.719C595.431 91.9475 595.49 92.2584 595.719 92.4135L599.442 94.9414C599.67 95.0965 599.981 95.0371 600.136 94.8086C600.291 94.5802 600.232 94.2692 600.004 94.1141L596.694 91.8671L598.941 88.5579C599.096 88.3294 599.037 88.0185 598.809 87.8633C598.58 87.7082 598.269 87.7677 598.114 87.9961L595.586 91.719ZM673.082 91.5068C655.058 88.5029 629.991 84.9926 595.906 91.5088L596.094 92.491C630.009 86.0073 654.94 89.4972 672.918 92.4932L673.082 91.5068Z" fill="#00B2B2"/>
<path d="M532.677 372.618C532.466 372.797 532.439 373.112 532.618 373.323L535.525 376.758C535.703 376.969 536.018 376.995 536.229 376.817C536.44 376.639 536.466 376.323 536.288 376.112L533.704 373.059L536.758 370.475C536.969 370.297 536.995 369.981 536.816 369.77C536.638 369.56 536.323 369.533 536.112 369.712L532.677 372.618ZM643 354.5C624.403 354.5 610.31 360.161 594.225 365.211C578.136 370.262 559.954 374.745 533.041 372.502L532.958 373.498C560.045 375.756 578.364 371.238 594.524 366.165C610.689 361.09 624.597 355.5 643 355.5V354.5Z" fill="#5B6BC8"/>
<path d="M307.46 373.197C307.568 372.943 307.451 372.649 307.197 372.54L303.061 370.768C302.807 370.659 302.513 370.777 302.404 371.03C302.296 371.284 302.413 371.578 302.667 371.687L306.343 373.263L304.768 376.939C304.659 377.193 304.777 377.487 305.03 377.596C305.284 377.704 305.578 377.587 305.687 377.333L307.46 373.197ZM213.738 361.426C233.296 373.461 271.971 387.55 307.186 373.464L306.814 372.536C272.029 386.45 233.704 372.539 214.262 360.575L213.738 361.426Z" fill="#22289B"/>
<path d="M218.419 260.273C218.57 260.041 218.504 259.732 218.273 259.581L214.502 257.125C214.27 256.975 213.961 257.04 213.81 257.272C213.659 257.503 213.725 257.813 213.956 257.963L217.308 260.146L215.125 263.498C214.975 263.73 215.04 264.039 215.272 264.19C215.503 264.341 215.813 264.275 215.963 264.044L218.419 260.273ZM141.614 250.317C147.479 257.458 157.753 261.863 170.936 263.558C184.132 265.255 200.315 264.247 218.103 260.489L217.897 259.511C200.185 263.253 184.118 264.245 171.064 262.567C157.997 260.887 148.021 256.542 142.386 249.683L141.614 250.317Z" fill="#AF03B2"/>
<path d="M252.306 82.3955C252.524 82.2265 252.564 81.9125 252.395 81.694L249.642 78.1347C249.473 77.9163 249.159 77.8762 248.941 78.0452C248.722 78.2142 248.682 78.5282 248.851 78.7466L251.299 81.9104L248.135 84.3579C247.916 84.5269 247.876 84.8409 248.045 85.0593C248.214 85.2778 248.528 85.3178 248.747 85.1489L252.306 82.3955ZM190 96.5C204.112 96.5 213.821 92.2098 222.884 88.3348C231.944 84.461 240.333 81.0146 251.937 82.496L252.063 81.504C240.168 79.9854 231.556 83.5391 222.491 87.4153C213.428 91.2902 203.887 95.5 190 95.5L190 96.5Z" fill="#9097DA"/>
<path d="M336.298 12.4017C336.52 12.2372 336.566 11.9241 336.402 11.7023L333.722 8.08736C333.557 7.86553 333.244 7.81903 333.022 7.98349C332.8 8.14795 332.754 8.46109 332.918 8.68292L335.301 11.8962L332.087 14.2784C331.865 14.4429 331.819 14.756 331.983 14.9778C332.148 15.1997 332.461 15.2462 332.683 15.0817L336.298 12.4017ZM215.186 29.4643C235.159 21.4749 285.559 5.01432 335.927 12.4946L336.073 11.5055C285.441 3.98587 234.841 20.5253 214.814 28.5358L215.186 29.4643Z" fill="#327795"/>
<path d="M420 0C377.764 -5.03658e-07 336.612 13.371 302.443 38.1966L420 200V0Z" fill="#327795"/>
<path d="M229.789 138.197C242.84 98.0278 268.273 63.0221 302.443 38.1965L420 200L229.789 138.197Z" fill="#9097DA"/>
<path d="M258.264 317.65C239.698 292.126 227.436 262.571 222.48 231.4C217.525 200.229 220.017 168.329 229.753 138.306L420 200L258.264 317.65Z" fill="#AF03B2"/>
<path d="M420 400C388.438 400 357.324 392.53 329.202 378.201C301.08 363.872 276.748 343.091 258.197 317.557L420 200L420 400Z" fill="#22289B"/>
<path d="M581.803 317.557C563.252 343.091 538.92 363.872 510.798 378.201C482.676 392.53 451.562 400 420 400L420 200L581.803 317.557Z" fill="#5B6BC8"/>
<path d="M420 0C456.884 4.39843e-07 493.051 10.1999 524.5 29.472C555.949 48.744 581.456 76.3376 598.201 109.202C614.947 142.066 622.277 178.921 619.383 215.692C616.49 252.463 603.484 287.717 581.803 317.557L420 200V0Z" fill="#00B2B2"/>
</svg>
