<svg width="24" height="25" viewBox="0 0 24 25" fill="none" xmlns="http://www.w3.org/2000/svg">
<path d="M20 12.3V22.55H4V12.3" stroke="#1D252F" stroke-width="2" stroke-linecap="round" stroke-linejoin="round"/>
<path d="M22 7.17499H2V12.3H22V7.17499Z" stroke="#1D252F" stroke-width="2" stroke-linecap="round" stroke-linejoin="round"/>
<path d="M12 22.55V7.17499" stroke="#1D252F" stroke-width="2" stroke-linecap="round" stroke-linejoin="round"/>
<path d="M12 7.17499H7.5C6.83696 7.17499 6.20107 6.90501 5.73223 6.42445C5.26339 5.94389 5 5.2921 5 4.61249C5 3.93287 5.26339 3.28109 5.73223 2.80053C6.20107 2.31996 6.83696 2.04999 7.5 2.04999C11 2.04999 12 7.17499 12 7.17499Z" stroke="#1D252F" stroke-width="2" stroke-linecap="round" stroke-linejoin="round"/>
<path d="M12 7.17499H16.5C17.163 7.17499 17.7989 6.90501 18.2678 6.42445C18.7366 5.94389 19 5.2921 19 4.61249C19 3.93287 18.7366 3.28109 18.2678 2.80053C17.7989 2.31996 17.163 2.04999 16.5 2.04999C13 2.04999 12 7.17499 12 7.17499Z" stroke="#1D252F" stroke-width="2" stroke-linecap="round" stroke-linejoin="round"/>
</svg>
