<svg width="47" height="32" viewBox="0 0 47 32" fill="none" xmlns="http://www.w3.org/2000/svg">
<g clip-path="url(#clip0)">
<rect width="47" height="32" rx="4" fill="#FDD484"/>
<rect x="6" y="15.5" width="7" height="1" fill="#1D252F"/>
<rect x="9" y="19.5" width="7" height="1" transform="rotate(-90 9 19.5)" fill="#1D252F"/>
<path d="M31 6H23C22.4696 6 21.9609 6.21071 21.5858 6.58579C21.2107 6.96086 21 7.46957 21 8V24C21 24.5304 21.2107 25.0391 21.5858 25.4142C21.9609 25.7893 22.4696 26 23 26H35C35.5304 26 36.0391 25.7893 36.4142 25.4142C36.7893 25.0391 37 24.5304 37 24V12L31 6Z" stroke="#1D252F" stroke-linecap="round" stroke-linejoin="round"/>
<path d="M31 6V12H37" stroke="#1D252F" stroke-linecap="round" stroke-linejoin="round"/>
<path d="M33 17H25" stroke="#1D252F" stroke-linecap="round" stroke-linejoin="round"/>
<path d="M33 21H25" stroke="#1D252F" stroke-linecap="round" stroke-linejoin="round"/>
<path d="M27 13H26H25" stroke="#1D252F" stroke-linecap="round" stroke-linejoin="round"/>
</g>
<defs>
<clipPath id="clip0">
<rect width="47" height="32" rx="4" fill="white"/>
</clipPath>
</defs>
</svg>
