<svg width="39" height="24" viewBox="0 0 39 24" fill="none" xmlns="http://www.w3.org/2000/svg">
<rect width="39" height="24" rx="4" fill="#FDD484"/>
<rect x="6" y="11.5" width="7" height="1" fill="#1D252F"/>
<rect x="9" y="15.5" width="7" height="1" transform="rotate(-90 9 15.5)" fill="#1D252F"/>
<path d="M30.3333 12V18.6667H19.6667V12" stroke="#1D252F" stroke-linecap="round" stroke-linejoin="round"/>
<path d="M31.6667 8.66663H18.3333V12H31.6667V8.66663Z" stroke="#1D252F" stroke-linecap="round" stroke-linejoin="round"/>
<path d="M25 18.6666V8.66663" stroke="#1D252F" stroke-linecap="round" stroke-linejoin="round"/>
<path d="M25 8.66671H22C21.558 8.66671 21.1341 8.49111 20.8215 8.17855C20.5089 7.86599 20.3333 7.44207 20.3333 7.00004C20.3333 6.55801 20.5089 6.13409 20.8215 5.82153C21.1341 5.50897 21.558 5.33337 22 5.33337C24.3333 5.33337 25 8.66671 25 8.66671Z" stroke="#1D252F" stroke-linecap="round" stroke-linejoin="round"/>
<path d="M25 8.66671H28C28.442 8.66671 28.866 8.49111 29.1785 8.17855C29.4911 7.86599 29.6667 7.44207 29.6667 7.00004C29.6667 6.55801 29.4911 6.13409 29.1785 5.82153C28.866 5.50897 28.442 5.33337 28 5.33337C25.6667 5.33337 25 8.66671 25 8.66671Z" stroke="#1D252F" stroke-linecap="round" stroke-linejoin="round"/>
</svg>
