<svg width="50" height="31" viewBox="0 0 50 31" fill="none" xmlns="http://www.w3.org/2000/svg">
<path d="M2 23.1C2.96089 23.296 3.84294 23.7702 4.53638 24.4636C5.22982 25.1571 5.70403 26.0391 5.9 27M2 19.05C4.03079 19.2759 5.92428 20.186 7.36911 21.6309C8.81395 23.0757 9.72414 24.9692 9.95 27M2 15V13C2 12.4696 2.21071 11.9609 2.58579 11.5858C2.96086 11.2107 3.46957 11 4 11H20C20.5304 11 21.0391 11.2107 21.4142 11.5858C21.7893 11.9609 22 12.4696 22 13V25C22 25.5304 21.7893 26.0391 21.4142 26.4142C21.0391 26.7893 20.5304 27 20 27H14" stroke="white" stroke-width="2" stroke-linecap="round" stroke-linejoin="round"/>
<path d="M2 27H2.01" stroke="white" stroke-width="2" stroke-linecap="round" stroke-linejoin="round"/>
<rect x="15" y="3" width="35" height="14" rx="3" fill="#FF4081"/>
<path d="M23.0254 6.73926H22.0488V14H26.6973V13.1309H23.0254V6.73926ZM28.6113 6.73926H27.6348V14H28.6113V6.73926ZM32.7324 12.9307H32.7129L30.6426 6.73926H29.5537L32.1953 14H33.2451L35.8818 6.73926H34.7832L32.7324 12.9307ZM42.1807 13.1309H37.8008V10.6113H41.7705V9.74219H37.8008V7.6084H42.1123V6.73926H36.8242V14H42.1807V13.1309Z" fill="white"/>
</svg>
