<svg width="26" height="26" viewBox="0 0 26 26" fill="none" xmlns="http://www.w3.org/2000/svg">
<path d="M13 25C19.6274 25 25 19.6274 25 13C25 6.37258 19.6274 1 13 1C6.37258 1 1 6.37258 1 13C1 19.6274 6.37258 25 13 25Z" stroke="#1D252F" stroke-linecap="round" stroke-linejoin="round"/>
<path d="M21 22C21 20.9391 20.5786 19.9217 19.8284 19.1716C19.0783 18.4214 18.0609 18 17 18H9C7.93913 18 6.92172 18.4214 6.17157 19.1716C5.42143 19.9217 5 20.9391 5 22" stroke="#1D252F" stroke-linecap="round" stroke-linejoin="round"/>
<path d="M13 15C15.2091 15 17 13.2091 17 11C17 8.79086 15.2091 7 13 7C10.7909 7 9 8.79086 9 11C9 13.2091 10.7909 15 13 15Z" stroke="#1D252F" stroke-linecap="round" stroke-linejoin="round"/>
</svg>
