<svg width="72" height="19" viewBox="0 0 72 19" fill="none" xmlns="http://www.w3.org/2000/svg">
<path d="M71.0025 5.10817C71.4951 5.35805 71.6918 5.95988 71.4419 6.45241L67.3699 14.4785C67.12 14.9711 66.5181 15.1678 66.0256 14.9179C65.5331 14.668 65.3364 14.0662 65.5863 13.5736L69.2059 6.4393L62.0715 2.81973C61.579 2.56985 61.3823 1.96801 61.6322 1.47549C61.8821 0.982968 62.4839 0.786267 62.9764 1.03615L71.0025 5.10817ZM1.2636 10.7715C21.3091 13.8381 48.043 12.304 70.2394 5.04944L70.8608 6.95048C48.3502 14.3077 21.2988 15.8598 0.961154 12.7485L1.2636 10.7715Z" fill="#383A48"/>
</svg>
