<svg width="80" height="37" viewBox="0 0 80 37" fill="none" xmlns="http://www.w3.org/2000/svg">
<path d="M78.0463 12.8469C78.4733 12.4967 78.5356 11.8666 78.1855 11.4395L72.4787 4.48011C72.1285 4.05305 71.4984 3.99073 71.0714 4.34093C70.6443 4.69112 70.582 5.32121 70.9322 5.74827L76.0048 11.9344L69.8187 17.0071C69.3916 17.3572 69.3293 17.9873 69.6795 18.4144C70.0297 18.8415 70.6598 18.9038 71.0869 18.5536L78.0463 12.8469ZM2.97656 27.1689C15.5122 16.9808 37.0928 9.0909 77.3138 13.0687L77.5106 11.0785C36.9713 7.06912 14.797 14.9848 1.71516 25.6168L2.97656 27.1689Z" fill="#383A48"/>
</svg>
