<svg width="40" height="40" viewBox="0 0 40 40" fill="none" xmlns="http://www.w3.org/2000/svg">
<path d="M39.9968 19.9984C39.9968 8.95355 31.0432 0 19.9984 0C8.95355 0 0 8.9536 0 19.9984C0 29.9802 7.31314 38.2537 16.8737 39.7539V25.7792H11.7959V19.9984H16.8737V15.5925C16.8737 10.5804 19.8593 7.81189 24.4274 7.81189C26.6154 7.81189 28.904 8.20248 28.904 8.20248V13.124H26.3822C23.8979 13.124 23.1232 14.6655 23.1232 16.247V19.9984H28.6696L27.783 25.7792H23.1232V39.7539C32.6837 38.2536 39.9969 29.9802 39.9969 19.9984H39.9968Z" fill="#1877F2"/>
<path d="M27.7839 25.7798L28.6706 19.999H23.1241V16.2477C23.1241 14.6661 23.8989 13.1246 26.3832 13.1246H28.9049V8.2031C28.9049 8.2031 26.6163 7.8125 24.4283 7.8125C19.8602 7.8125 16.8746 10.581 16.8746 15.5931V19.999H11.7969V25.7798H16.8746V39.7545C17.8928 39.9143 18.9363 39.9975 19.9994 39.9975C21.0624 39.9975 22.106 39.9143 23.1241 39.7545V25.7798H27.7839Z" fill="white"/>
</svg>
