<svg width="41" height="40" viewBox="0 0 41 40" fill="none" xmlns="http://www.w3.org/2000/svg">
<path d="M20.01 0.302979C11.7852 0.302979 9.37972 0.311463 8.91214 0.350251C7.22427 0.490554 6.17396 0.756312 5.02972 1.32601C4.1479 1.76389 3.45245 2.27146 2.76608 2.98298C1.51608 4.28055 0.758507 5.87692 0.484264 7.77449C0.350931 8.69571 0.312143 8.88358 0.304264 13.589C0.301234 15.1575 0.304264 17.2218 0.304264 19.9906C0.304264 28.2087 0.313355 30.6118 0.352749 31.0784C0.489113 32.7209 0.746689 33.7542 1.29214 34.8845C2.33457 37.0481 4.32548 38.6724 6.67093 39.2784C7.48305 39.4875 8.38002 39.6027 9.53154 39.6572C10.0194 39.6784 14.9921 39.6936 19.9679 39.6936C24.9437 39.6936 29.9194 39.6875 30.3952 39.6633C31.7285 39.6006 32.5028 39.4966 33.3588 39.2754C35.7194 38.6663 37.674 37.0663 38.7376 34.8724C39.2724 33.7693 39.5437 32.6966 39.6664 31.1399C39.6931 30.8006 39.7043 25.3893 39.7043 19.9854C39.7043 14.5806 39.6922 9.17934 39.6655 8.83995C39.5412 7.25813 39.27 6.19449 38.7179 5.07025C38.2649 4.14995 37.7618 3.46268 37.0315 2.75995C35.7282 1.5151 34.1343 0.757524 32.2349 0.483585C31.3146 0.350554 31.1312 0.31116 26.4221 0.302979H20.01Z" fill="url(#paint0_radial)"/>
<path d="M20.01 0.302979C11.7852 0.302979 9.37972 0.311463 8.91214 0.350251C7.22427 0.490554 6.17396 0.756312 5.02972 1.32601C4.1479 1.76389 3.45245 2.27146 2.76608 2.98298C1.51608 4.28055 0.758507 5.87692 0.484264 7.77449C0.350931 8.69571 0.312143 8.88358 0.304264 13.589C0.301234 15.1575 0.304264 17.2218 0.304264 19.9906C0.304264 28.2087 0.313355 30.6118 0.352749 31.0784C0.489113 32.7209 0.746689 33.7542 1.29214 34.8845C2.33457 37.0481 4.32548 38.6724 6.67093 39.2784C7.48305 39.4875 8.38002 39.6027 9.53154 39.6572C10.0194 39.6784 14.9921 39.6936 19.9679 39.6936C24.9437 39.6936 29.9194 39.6875 30.3952 39.6633C31.7285 39.6006 32.5028 39.4966 33.3588 39.2754C35.7194 38.6663 37.674 37.0663 38.7376 34.8724C39.2724 33.7693 39.5437 32.6966 39.6664 31.1399C39.6931 30.8006 39.7043 25.3893 39.7043 19.9854C39.7043 14.5806 39.6922 9.17934 39.6655 8.83995C39.5412 7.25813 39.27 6.19449 38.7179 5.07025C38.2649 4.14995 37.7618 3.46268 37.0315 2.75995C35.7282 1.5151 34.1343 0.757524 32.2349 0.483585C31.3146 0.350554 31.1312 0.31116 26.4221 0.302979H20.01Z" fill="url(#paint1_radial)"/>
<path d="M20.0012 5.45459C16.0509 5.45459 15.5551 5.47186 14.0036 5.54247C12.4551 5.61338 11.3982 5.85853 10.4733 6.21823C9.51665 6.58974 8.70514 7.08671 7.89665 7.8955C7.08756 8.70398 6.59059 9.5155 6.21786 10.4719C5.85726 11.397 5.6118 12.4543 5.5421 14.0022C5.47271 15.5537 5.45453 16.0497 5.45453 20C5.45453 23.9503 5.4721 24.4446 5.54241 25.9961C5.61362 27.5446 5.85877 28.6016 6.21817 29.5264C6.58998 30.4831 7.08695 31.2946 7.89574 32.1031C8.70392 32.9122 9.51544 33.4103 10.4715 33.7819C11.397 34.1416 12.4542 34.3867 14.0024 34.4576C15.5539 34.5282 16.0494 34.5455 19.9994 34.5455C23.95 34.5455 24.4442 34.5282 25.9957 34.4576C27.5442 34.3867 28.6024 34.1416 29.5279 33.7819C30.4842 33.4103 31.2945 32.9122 32.1027 32.1031C32.9118 31.2946 33.4088 30.4831 33.7815 29.5267C34.1391 28.6016 34.3845 27.5443 34.4573 25.9964C34.527 24.4449 34.5451 23.9503 34.5451 20C34.5451 16.0497 34.527 15.554 34.4573 14.0025C34.3845 12.454 34.1391 11.397 33.7815 10.4722C33.4088 9.5155 32.9118 8.70398 32.1027 7.8955C31.2936 7.08641 30.4845 6.58944 29.527 6.21823C28.5997 5.85853 27.5421 5.61338 25.9936 5.54247C24.4421 5.47186 23.9482 5.45459 19.9967 5.45459H20.0012ZM18.6963 8.0758C19.0836 8.0752 19.5157 8.0758 20.0012 8.0758C23.8848 8.0758 24.3451 8.08974 25.8788 8.15944C27.297 8.22429 28.0667 8.46126 28.5794 8.66035C29.2582 8.92398 29.7421 9.23914 30.2509 9.74823C30.76 10.2573 31.0751 10.7422 31.3394 11.421C31.5385 11.9331 31.7757 12.7028 31.8403 14.121C31.91 15.6543 31.9251 16.1149 31.9251 19.9967C31.9251 23.8785 31.91 24.3391 31.8403 25.8725C31.7754 27.2907 31.5385 28.0603 31.3394 28.5725C31.0757 29.2513 30.76 29.7346 30.2509 30.2434C29.7418 30.7525 29.2585 31.0676 28.5794 31.3313C28.0673 31.5313 27.297 31.7676 25.8788 31.8325C24.3454 31.9022 23.8848 31.9173 20.0012 31.9173C16.1173 31.9173 15.657 31.9022 14.1236 31.8325C12.7054 31.767 11.9357 31.53 11.4227 31.331C10.7439 31.0673 10.2591 30.7522 9.74998 30.2431C9.24089 29.734 8.92574 29.2503 8.6615 28.5713C8.46241 28.0591 8.22514 27.2894 8.16059 25.8713C8.09089 24.3379 8.07695 23.8773 8.07695 19.9931C8.07695 16.1088 8.09089 15.6507 8.16059 14.1173C8.22544 12.6991 8.46241 11.9294 8.6615 11.4167C8.92514 10.7379 9.24089 10.2531 9.74998 9.74398C10.2591 9.23489 10.7439 8.91974 11.4227 8.6555C11.9354 8.4555 12.7054 8.21914 14.1236 8.15398C15.4654 8.09338 15.9854 8.0752 18.6963 8.07217V8.0758ZM27.7654 10.491C26.8018 10.491 26.02 11.2719 26.02 12.2358C26.02 13.1994 26.8018 13.9813 27.7654 13.9813C28.7291 13.9813 29.5109 13.1994 29.5109 12.2358C29.5109 11.2722 28.7291 10.4903 27.7654 10.4903V10.491ZM20.0012 12.5303C15.876 12.5303 12.5315 15.8749 12.5315 20C12.5315 24.1252 15.876 27.4682 20.0012 27.4682C24.1263 27.4682 27.4697 24.1252 27.4697 20C27.4697 15.8749 24.126 12.5303 20.0009 12.5303H20.0012ZM20.0012 15.1516C22.6788 15.1516 24.8497 17.3222 24.8497 20C24.8497 22.6776 22.6788 24.8485 20.0012 24.8485C17.3233 24.8485 15.1527 22.6776 15.1527 20C15.1527 17.3222 17.3233 15.1516 20.0012 15.1516Z" fill="white"/>
<defs>
<radialGradient id="paint0_radial" cx="0" cy="0" r="1" gradientUnits="userSpaceOnUse" gradientTransform="translate(10.769 42.7275) rotate(-90) scale(39.039 36.3192)">
<stop stop-color="#FFDD55"/>
<stop offset="0.1" stop-color="#FFDD55"/>
<stop offset="0.5" stop-color="#FF543E"/>
<stop offset="1" stop-color="#C837AB"/>
</radialGradient>
<radialGradient id="paint1_radial" cx="0" cy="0" r="1" gradientUnits="userSpaceOnUse" gradientTransform="translate(-6.29702 3.14061) rotate(78.6776) scale(17.4508 71.951)">
<stop stop-color="#3771C8"/>
<stop offset="0.128" stop-color="#3771C8"/>
<stop offset="1" stop-color="#6600FF" stop-opacity="0"/>
</radialGradient>
</defs>
</svg>
