<svg width="24" height="24" viewBox="0 0 24 24" fill="none" xmlns="http://www.w3.org/2000/svg">
<path d="M23.6294 2.54755C23.3362 2.19442 22.8971 2 22.3929 2C22.1188 2 21.8284 2.05681 21.5299 2.16917L1.21439 9.80764C0.136268 10.2129 -0.00893447 10.821 0.000403878 11.1475C0.00974222 11.4739 0.189734 12.073 1.28946 12.4177C1.29606 12.4197 1.30265 12.4217 1.30924 12.4235L5.52322 13.6113L7.80214 20.03C8.11287 20.9051 8.81032 21.4487 9.62257 21.4487C10.1347 21.4487 10.6384 21.2373 11.0794 20.8376L13.6859 18.4737L17.4664 21.4721L17.4677 21.473L17.5036 21.5015C17.5069 21.504 17.5104 21.5067 17.5137 21.5093C17.9339 21.8303 18.3926 21.9998 18.8406 22C19.7161 22 20.4133 21.3617 20.6164 20.3741L23.945 4.18497C24.0787 3.53516 23.9667 2.9537 23.6294 2.54755ZM6.93294 13.3856L15.063 9.29471L10.0007 14.5929C9.91774 14.6797 9.85896 14.7859 9.83003 14.9015L8.8539 18.796L6.93294 13.3856ZM10.1267 19.8186C10.093 19.8491 10.0591 19.8764 10.0252 19.9014L10.9309 16.2886L12.5783 17.5953L10.1267 19.8186ZM22.5668 3.90993L19.2381 20.0993C19.2061 20.2542 19.1038 20.6147 18.8406 20.6147C18.7106 20.6147 18.5473 20.5449 18.3801 20.4181L14.0962 17.0206L14.0942 17.0192L11.5452 14.9975L18.8659 7.33555C19.1003 7.09027 19.1215 6.71459 18.9163 6.44515C18.7108 6.1757 18.3386 6.09093 18.0341 6.24423L5.99343 12.303L1.72214 11.0993L22.0314 3.4632C22.203 3.39863 22.3227 3.38511 22.3929 3.38511C22.4359 3.38511 22.5124 3.39016 22.5408 3.4246C22.5782 3.46951 22.6258 3.62263 22.5668 3.90993Z" fill="#8A8E93"/>
</svg>
