<svg width="24" height="24" viewBox="0 0 24 24" fill="none" xmlns="http://www.w3.org/2000/svg">
<path d="M12 24C18.6274 24 24 18.6274 24 12C24 5.37258 18.6274 0 12 0C5.37258 0 0 5.37258 0 12C0 18.6274 5.37258 24 12 24Z" fill="url(#paint0_linear)"/>
<path d="M4.99425 11.8959L13.0752 8.56642C13.8729 8.2196 16.5781 7.10977 16.5781 7.10977C16.5781 7.10977 17.8266 6.62422 17.7226 7.80341C17.6879 8.28896 17.4104 9.98838 17.133 11.8265L16.2659 17.2716C16.2659 17.2716 16.1966 18.0693 15.607 18.208C15.0174 18.3468 14.0463 17.7225 13.8729 17.5838C13.7341 17.4797 11.2717 15.919 10.37 15.156C10.1272 14.9479 9.84974 14.5317 10.4046 14.0462C11.6532 12.9017 13.1445 11.4797 14.0463 10.578C14.4625 10.1618 14.8786 9.19069 13.1445 10.3699L8.25436 13.6647C8.25436 13.6647 7.69945 14.0115 6.65899 13.6994C5.61852 13.3872 4.40465 12.971 4.40465 12.971C4.40465 12.971 3.57228 12.4508 4.99425 11.8959Z" fill="white"/>
<defs>
<linearGradient id="paint0_linear" x1="16.0009" y1="4.00092" x2="10.0009" y2="18" gradientUnits="userSpaceOnUse">
<stop stop-color="#37AEE2"/>
<stop offset="1" stop-color="#1E96C8"/>
</linearGradient>
</defs>
</svg>
