<svg width="40" height="40" viewBox="0 0 40 40" fill="none" xmlns="http://www.w3.org/2000/svg">
<path d="M36.6235 12.05C36.2325 10.5871 35.0805 9.43509 33.6176 9.04409C30.9658 8.3335 20.3336 8.3335 20.3336 8.3335C20.3336 8.3335 9.70128 8.3335 7.04946 9.04409C5.58682 9.43509 4.43458 10.5871 4.04358 12.05C3.33325 14.7015 3.33325 20.2339 3.33325 20.2339C3.33325 20.2339 3.33325 25.7662 4.04358 28.4175C4.43458 29.8804 5.58682 31.0327 7.04946 31.4236C9.70128 32.1339 20.3336 32.1339 20.3336 32.1339C20.3336 32.1339 30.9658 32.1339 33.6176 31.4236C35.0805 31.0327 36.2325 29.8804 36.6235 28.4175C37.3341 25.7662 37.3341 20.2339 37.3341 20.2339C37.3341 20.2339 37.3341 14.7015 36.6235 12.05Z" fill="#ED1F24"/>
<path d="M16.9783 25.3307L25.8117 20.2306L16.9783 15.1304V25.3307Z" fill="white"/>
</svg>
