<svg width="91" height="76" viewBox="0 0 91 76" fill="none" xmlns="http://www.w3.org/2000/svg">
<line x1="28.5" y1="74.5" x2="28.5" y2="1.5" stroke="url(#paint0_linear)" stroke-width="3" stroke-linecap="round" stroke-linejoin="round"/>
<line x1="69.5" y1="74.5" x2="69.5" y2="1.5" stroke="url(#paint1_linear)" stroke-width="3" stroke-linecap="round" stroke-linejoin="round"/>
<line x1="69.5" y1="1.5" x2="28.5" y2="1.5" stroke="url(#paint2_linear)" stroke-width="3" stroke-linecap="round" stroke-linejoin="round"/>
<path d="M9 74.5L9 21.5L23.5 14.5" stroke="url(#paint3_linear)" stroke-width="3" stroke-linecap="round" stroke-linejoin="round"/>
<rect x="44" y="61" width="9" height="15" rx="3" fill="url(#paint4_linear)"/>
<rect x="15" y="61" width="7" height="15" rx="3" fill="url(#paint5_linear)"/>
<circle cx="39" cy="13" r="2" fill="#C4C4C4"/>
<circle cx="49" cy="13" r="2" fill="#C4C4C4"/>
<circle cx="59" cy="13" r="2" fill="#C4C4C4"/>
<circle cx="39" cy="23" r="2" fill="#C4C4C4"/>
<circle cx="49" cy="23" r="2" fill="#C4C4C4"/>
<circle cx="59" cy="23" r="2" fill="#C4C4C4"/>
<circle cx="39" cy="33" r="2" fill="#C4C4C4"/>
<circle cx="49" cy="33" r="2" fill="#C4C4C4"/>
<circle cx="59" cy="33" r="2" fill="#C4C4C4"/>
<circle cx="39" cy="43" r="2" fill="#C4C4C4"/>
<circle cx="49" cy="43" r="2" fill="#C4C4C4"/>
<circle cx="59" cy="43" r="2" fill="#C4C4C4"/>
<circle cx="39" cy="53" r="2" fill="#C4C4C4"/>
<circle cx="49" cy="53" r="2" fill="#C4C4C4"/>
<circle cx="59" cy="53" r="2" fill="#C4C4C4"/>
<circle cx="18.5" cy="33" r="2" transform="rotate(90 18.5 33)" fill="#C4C4C4"/>
<circle cx="18.5" cy="43" r="2" transform="rotate(90 18.5 43)" fill="#C4C4C4"/>
<circle cx="18.5" cy="53" r="2" transform="rotate(90 18.5 53)" fill="#C4C4C4"/>
<line x1="1.5" y1="74.5" x2="89.5" y2="74.5" stroke="url(#paint6_linear)" stroke-width="3" stroke-linecap="round" stroke-linejoin="round"/>
<defs>
<linearGradient id="paint0_linear" x1="29.1484" y1="149.109" x2="147.373" y2="52.2515" gradientUnits="userSpaceOnUse">
<stop stop-color="#AF03B2"/>
<stop offset="0.541667" stop-color="#5062B2"/>
<stop offset="1" stop-color="#00B2B2"/>
</linearGradient>
<linearGradient id="paint1_linear" x1="70.1484" y1="149.109" x2="188.373" y2="52.2515" gradientUnits="userSpaceOnUse">
<stop stop-color="#AF03B2"/>
<stop offset="0.541667" stop-color="#5062B2"/>
<stop offset="1" stop-color="#00B2B2"/>
</linearGradient>
<linearGradient id="paint2_linear" x1="113.326" y1="0.85156" x2="20.2073" y2="-64.9522" gradientUnits="userSpaceOnUse">
<stop stop-color="#AF03B2"/>
<stop offset="0.541667" stop-color="#5062B2"/>
<stop offset="1" stop-color="#00B2B2"/>
</linearGradient>
<linearGradient id="paint3_linear" x1="-3.34761" y1="132.217" x2="9.24965" y2="-57.3363" gradientUnits="userSpaceOnUse">
<stop stop-color="#AF03B2"/>
<stop offset="0.541667" stop-color="#5062B2"/>
<stop offset="1" stop-color="#00B2B2"/>
</linearGradient>
<linearGradient id="paint4_linear" x1="35.3424" y1="48.2266" x2="63.8984" y2="48.5018" gradientUnits="userSpaceOnUse">
<stop stop-color="#AF03B2"/>
<stop offset="0.541667" stop-color="#5062B2"/>
<stop offset="1" stop-color="#00B2B2"/>
</linearGradient>
<linearGradient id="paint5_linear" x1="8.2663" y1="48.2266" x2="30.4773" y2="48.3931" gradientUnits="userSpaceOnUse">
<stop stop-color="#AF03B2"/>
<stop offset="0.541667" stop-color="#5062B2"/>
<stop offset="1" stop-color="#00B2B2"/>
</linearGradient>
<linearGradient id="paint6_linear" x1="-87.538" y1="75.1484" x2="4.54051" y2="209.722" gradientUnits="userSpaceOnUse">
<stop stop-color="#AF03B2"/>
<stop offset="0.541667" stop-color="#5062B2"/>
<stop offset="1" stop-color="#00B2B2"/>
</linearGradient>
</defs>
</svg>
