<svg width="29" height="28" viewBox="0 0 29 28" fill="none" xmlns="http://www.w3.org/2000/svg">
<path d="M6.3043 27.5972C5.9957 27.5972 5.68925 27.501 5.42772 27.3118C4.94054 26.9588 4.71296 26.3519 4.84556 25.7663L6.65759 17.7843L0.51231 12.395C0.0605902 12.0006 -0.111975 11.3761 0.0734843 10.8047C0.258943 10.2344 0.763529 9.83058 1.36095 9.77536L9.49191 9.03717L12.7066 1.51416C12.9436 0.961441 13.4835 0.604492 14.0833 0.604492C14.683 0.604492 15.2229 0.961441 15.4599 1.51288L18.6746 9.03717L26.8043 9.77536C27.403 9.8293 27.9076 10.2344 28.093 10.8047C28.2785 11.3751 28.107 12.0006 27.6553 12.395L21.51 17.7832L23.322 25.765C23.4548 26.3519 23.227 26.9588 22.7401 27.3108C22.2542 27.6628 21.6063 27.6899 21.0946 27.3823L14.0833 23.1924L7.07192 27.3847C6.83489 27.5255 6.57078 27.5972 6.3043 27.5972ZM14.0833 21.3875C14.3497 21.3875 14.6136 21.459 14.8509 21.5998L21.4679 25.5574L19.7577 18.0237C19.6356 17.4875 19.8176 16.9277 20.232 16.5649L26.0345 11.4761L18.3576 10.7789C17.8049 10.7284 17.3295 10.3809 17.1136 9.87163L14.0833 2.77219L11.0493 9.8727C10.8357 10.3786 10.3603 10.7261 9.80889 10.7766L2.13094 11.4737L7.93324 16.5625C8.34886 16.9264 8.53066 17.4851 8.40753 18.0226L6.69864 25.5561L13.3156 21.5998C13.5527 21.459 13.8168 21.3875 14.0833 21.3875ZM9.42981 9.18266C9.42981 9.18266 9.42981 9.18395 9.42852 9.18502L9.42981 9.18266ZM18.7343 9.17922L18.7356 9.18159C18.7356 9.1803 18.7356 9.1803 18.7343 9.17922Z" fill="#FEAE14"/>
</svg>
