<svg width="26" height="28" viewBox="0 0 26 28" fill="none" xmlns="http://www.w3.org/2000/svg">
<path d="M15 2H8C7.46957 2 6.96086 2.21071 6.58579 2.58579C6.21071 2.96086 6 3.46957 6 4V20C6 20.5304 6.21071 21.0391 6.58579 21.4142C6.96086 21.7893 7.46957 22 8 22H20C20.5304 22 21.0391 21.7893 21.4142 21.4142C21.7893 21.0391 22 20.5304 22 20V9L15 2Z" stroke="#1D252F" stroke-linecap="round" stroke-linejoin="round"/>
<path d="M15 2V9H22" stroke="#1D252F" stroke-linecap="round" stroke-linejoin="round"/>
<path d="M6 6.41406H4C3.46957 6.41406 2.96086 6.62478 2.58579 6.99985C2.21071 7.37492 2 7.88363 2 8.41406V24.4141C2 24.9445 2.21071 25.4532 2.58579 25.8283C2.96086 26.2033 3.46957 26.4141 4 26.4141H16C16.5304 26.4141 17.0391 26.2033 17.4142 25.8283C17.7893 25.4532 18 24.9445 18 24.4141V22" stroke="#1D252F" stroke-linecap="round" stroke-linejoin="round"/>
</svg>
