<svg width="94" height="64" viewBox="0 0 94 64" fill="none" xmlns="http://www.w3.org/2000/svg">
<rect x="4" y="4" width="90" height="60" rx="5" fill="#AF03B2"/>
<rect x="1" y="1" width="88" height="58" rx="4" fill="white" stroke="#1D252F" stroke-width="2"/>
<g clip-path="url(#clip0)">
<path d="M21.3337 26.166V25.3327C21.3337 24.8907 21.1581 24.4667 20.8455 24.1542C20.5329 23.8416 20.109 23.666 19.667 23.666H16.3337C15.8916 23.666 15.4677 23.8416 15.1551 24.1542C14.8426 24.4667 14.667 24.8907 14.667 25.3327V26.166" fill="#1D252F"/>
<path d="M21.3337 26.166V25.3327C21.3337 24.8907 21.1581 24.4667 20.8455 24.1542C20.5329 23.8416 20.109 23.666 19.667 23.666H16.3337C15.8916 23.666 15.4677 23.8416 15.1551 24.1542C14.8426 24.4667 14.667 24.8907 14.667 25.3327V26.166" stroke="#1D252F" stroke-width="2" stroke-linecap="round" stroke-linejoin="round"/>
<path d="M17.9997 21.9993C18.9201 21.9993 19.6663 21.2532 19.6663 20.3327C19.6663 19.4122 18.9201 18.666 17.9997 18.666C17.0792 18.666 16.333 19.4122 16.333 20.3327C16.333 21.2532 17.0792 21.9993 17.9997 21.9993Z" fill="#1D252F" stroke="#1D252F" stroke-width="2" stroke-linecap="round" stroke-linejoin="round"/>
</g>
<rect x="9" y="15" width="18" height="12" rx="2" stroke="#1D252F" stroke-width="2"/>
<rect x="36" y="15" width="18" height="12" rx="2" stroke="#1D252F" stroke-width="2"/>
<g clip-path="url(#clip1)">
<path d="M48.3337 26.166V25.3327C48.3337 24.8907 48.1581 24.4667 47.8455 24.1542C47.5329 23.8416 47.109 23.666 46.667 23.666H43.3337C42.8916 23.666 42.4677 23.8416 42.1551 24.1542C41.8426 24.4667 41.667 24.8907 41.667 25.3327V26.166" fill="#1D252F"/>
<path d="M48.3337 26.166V25.3327C48.3337 24.8907 48.1581 24.4667 47.8455 24.1542C47.5329 23.8416 47.109 23.666 46.667 23.666H43.3337C42.8916 23.666 42.4677 23.8416 42.1551 24.1542C41.8426 24.4667 41.667 24.8907 41.667 25.3327V26.166" stroke="#1D252F" stroke-width="2" stroke-linecap="round" stroke-linejoin="round"/>
<path d="M44.9997 21.9993C45.9201 21.9993 46.6663 21.2532 46.6663 20.3327C46.6663 19.4122 45.9201 18.666 44.9997 18.666C44.0792 18.666 43.333 19.4122 43.333 20.3327C43.333 21.2532 44.0792 21.9993 44.9997 21.9993Z" fill="#1D252F" stroke="#1D252F" stroke-width="2" stroke-linecap="round" stroke-linejoin="round"/>
</g>
<rect x="63" y="15" width="18" height="12" rx="2" stroke="#1D252F" stroke-width="2"/>
<g clip-path="url(#clip2)">
<path d="M75.3337 26.166V25.3327C75.3337 24.8907 75.1581 24.4667 74.8455 24.1542C74.5329 23.8416 74.109 23.666 73.667 23.666H70.3337C69.8916 23.666 69.4677 23.8416 69.1551 24.1542C68.8426 24.4667 68.667 24.8907 68.667 25.3327V26.166" fill="#1D252F"/>
<path d="M75.3337 26.166V25.3327C75.3337 24.8907 75.1581 24.4667 74.8455 24.1542C74.5329 23.8416 74.109 23.666 73.667 23.666H70.3337C69.8916 23.666 69.4677 23.8416 69.1551 24.1542C68.8426 24.4667 68.667 24.8907 68.667 25.3327V26.166" stroke="#1D252F" stroke-width="2" stroke-linecap="round" stroke-linejoin="round"/>
<path d="M71.9997 21.9993C72.9201 21.9993 73.6663 21.2532 73.6663 20.3327C73.6663 19.4122 72.9201 18.666 71.9997 18.666C71.0792 18.666 70.333 19.4122 70.333 20.3327C70.333 21.2532 71.0792 21.9993 71.9997 21.9993Z" fill="#1D252F" stroke="#1D252F" stroke-width="2" stroke-linecap="round" stroke-linejoin="round"/>
</g>
<rect x="9" y="33" width="18" height="12" rx="2" stroke="#1D252F" stroke-width="2"/>
<g clip-path="url(#clip3)">
<path d="M21.3337 44.166V43.3327C21.3337 42.8907 21.1581 42.4667 20.8455 42.1542C20.5329 41.8416 20.109 41.666 19.667 41.666H16.3337C15.8916 41.666 15.4677 41.8416 15.1551 42.1542C14.8426 42.4667 14.667 42.8907 14.667 43.3327V44.166" fill="#1D252F"/>
<path d="M21.3337 44.166V43.3327C21.3337 42.8907 21.1581 42.4667 20.8455 42.1542C20.5329 41.8416 20.109 41.666 19.667 41.666H16.3337C15.8916 41.666 15.4677 41.8416 15.1551 42.1542C14.8426 42.4667 14.667 42.8907 14.667 43.3327V44.166" stroke="#1D252F" stroke-width="2" stroke-linecap="round" stroke-linejoin="round"/>
<path d="M17.9997 39.9993C18.9201 39.9993 19.6663 39.2532 19.6663 38.3327C19.6663 37.4122 18.9201 36.666 17.9997 36.666C17.0792 36.666 16.333 37.4122 16.333 38.3327C16.333 39.2532 17.0792 39.9993 17.9997 39.9993Z" fill="#1D252F" stroke="#1D252F" stroke-width="2" stroke-linecap="round" stroke-linejoin="round"/>
</g>
<rect x="36" y="33" width="18" height="12" rx="2" stroke="#1D252F" stroke-width="2"/>
<g clip-path="url(#clip4)">
<path d="M48.3337 44.166V43.3327C48.3337 42.8907 48.1581 42.4667 47.8455 42.1542C47.5329 41.8416 47.109 41.666 46.667 41.666H43.3337C42.8916 41.666 42.4677 41.8416 42.1551 42.1542C41.8426 42.4667 41.667 42.8907 41.667 43.3327V44.166" fill="#1D252F"/>
<path d="M48.3337 44.166V43.3327C48.3337 42.8907 48.1581 42.4667 47.8455 42.1542C47.5329 41.8416 47.109 41.666 46.667 41.666H43.3337C42.8916 41.666 42.4677 41.8416 42.1551 42.1542C41.8426 42.4667 41.667 42.8907 41.667 43.3327V44.166" stroke="#1D252F" stroke-width="2" stroke-linecap="round" stroke-linejoin="round"/>
<path d="M44.9997 39.9993C45.9201 39.9993 46.6663 39.2532 46.6663 38.3327C46.6663 37.4122 45.9201 36.666 44.9997 36.666C44.0792 36.666 43.333 37.4122 43.333 38.3327C43.333 39.2532 44.0792 39.9993 44.9997 39.9993Z" fill="#1D252F" stroke="#1D252F" stroke-width="2" stroke-linecap="round" stroke-linejoin="round"/>
</g>
<rect x="63" y="33" width="18" height="12" rx="2" stroke="#1D252F" stroke-width="2"/>
<g clip-path="url(#clip5)">
<path d="M75.3337 44.166V43.3327C75.3337 42.8907 75.1581 42.4667 74.8455 42.1542C74.5329 41.8416 74.109 41.666 73.667 41.666H70.3337C69.8916 41.666 69.4677 41.8416 69.1551 42.1542C68.8426 42.4667 68.667 42.8907 68.667 43.3327V44.166" fill="#1D252F"/>
<path d="M75.3337 44.166V43.3327C75.3337 42.8907 75.1581 42.4667 74.8455 42.1542C74.5329 41.8416 74.109 41.666 73.667 41.666H70.3337C69.8916 41.666 69.4677 41.8416 69.1551 42.1542C68.8426 42.4667 68.667 42.8907 68.667 43.3327V44.166" stroke="#1D252F" stroke-width="2" stroke-linecap="round" stroke-linejoin="round"/>
<path d="M71.9997 39.9993C72.9201 39.9993 73.6663 39.2532 73.6663 38.3327C73.6663 37.4122 72.9201 36.666 71.9997 36.666C71.0792 36.666 70.333 37.4122 70.333 38.3327C70.333 39.2532 71.0792 39.9993 71.9997 39.9993Z" fill="#1D252F" stroke="#1D252F" stroke-width="2" stroke-linecap="round" stroke-linejoin="round"/>
</g>
<defs>
<clipPath id="clip0">
<rect width="10" height="10" fill="white" transform="translate(13 17)"/>
</clipPath>
<clipPath id="clip1">
<rect width="10" height="10" fill="white" transform="translate(40 17)"/>
</clipPath>
<clipPath id="clip2">
<rect width="10" height="10" fill="white" transform="translate(67 17)"/>
</clipPath>
<clipPath id="clip3">
<rect width="10" height="10" fill="white" transform="translate(13 35)"/>
</clipPath>
<clipPath id="clip4">
<rect width="10" height="10" fill="white" transform="translate(40 35)"/>
</clipPath>
<clipPath id="clip5">
<rect width="10" height="10" fill="white" transform="translate(67 35)"/>
</clipPath>
</defs>
</svg>
